<?xml version="1.0" encoding="UTF-8" standalone="no"?>
<svg width="239px" height="350px" viewBox="0 0 239 350" version="1.1" xmlns="http://www.w3.org/2000/svg" xmlns:xlink="http://www.w3.org/1999/xlink">
    <!-- Generator: Sketch 40.3 (33839) - http://www.bohemiancoding.com/sketch -->
    <title>Artboard Copy</title>
    <desc>Created with Sketch.</desc>
    <defs></defs>
    <g id="final" stroke="none" stroke-width="1" fill="none" fill-rule="evenodd">
        <g id="Artboard-Copy" fill="#000000">
            <g id="Group-2" transform="translate(29.000000, 33.000000)">
                <g id="noun_472419_cc">
                    <g id="Group">
                        <path d="M9.70568282,0 C4.34491067,0.0129356138 0.0129409104,4.34313233 0,9.70171035 L0,112.109731 C0.0129409104,117.468309 4.34491067,121.798506 9.70568282,121.811441 L88.6307011,121.811441 L88.6307011,268.58369 C88.6307011,269.152857 88.7504045,269.692919 88.928342,270.200642 L79.3067751,270.200642 C76.6280067,270.20711 74.4604042,272.373825 74.4539337,275.051497 L74.4539337,283.094215 C74.4539337,283.776569 74.599519,284.423349 74.8583372,285.015154 L54.2078794,285.015154 C51.5291109,285.021622 49.3615084,287.188337 49.355038,289.866009 L49.355038,292.149145 C49.3615084,294.826817 51.5291109,296.993532 54.2078794,297 L132.743029,297 C135.421798,296.993532 137.5894,294.826817 137.595871,292.149145 L137.595871,289.866009 C137.5894,287.188337 135.421798,285.021622 132.743029,285.015154 L112.092572,285.015154 C112.348155,284.423349 112.49374,283.776569 112.49374,283.094215 L112.49374,275.051497 C112.487269,272.373825 110.319667,270.20711 107.640899,270.200642 L98.0160964,270.200642 C98.2005043,269.692919 98.3169725,269.152857 98.3169725,268.58369 L98.3169725,121.811441 L168.294317,121.811441 C173.651854,121.798506 177.987059,117.468309 178,112.109731 L178,9.70171035 C177.987059,4.34313233 173.655089,0.0129356138 168.294317,0 L9.70568282,0 Z M134.360643,292.145911 C134.357408,293.022299 133.619776,293.759629 132.743029,293.762863 L54.2046441,293.762863 C53.3278975,293.759629 52.5870303,293.022299 52.5870303,292.145911 L52.5870303,289.862775 C52.5870303,288.986387 53.3278975,288.249057 54.2046441,288.245823 L132.739794,288.245823 C133.619776,288.249057 134.357408,288.986387 134.360643,289.862775 L134.360643,292.145911 Z M109.258512,283.090981 C109.255277,283.967369 108.517645,284.704699 107.640899,284.707933 L79.3067751,284.707933 C78.4300285,284.704699 77.6891613,283.967369 77.6891613,283.090981 L77.6891613,275.048263 C77.6891613,274.171876 78.4300285,273.434546 79.3067751,273.431312 L107.640899,273.431312 C108.517645,273.434546 109.255277,274.171876 109.258512,275.048263 L109.258512,283.090981 Z M93.4738368,270.197408 C92.6035606,270.194174 91.8659287,269.460078 91.8659287,268.580456 L91.8659287,121.811441 L95.0817449,121.811441 L95.0817449,268.580456 C95.0817449,269.460078 94.3408778,270.194174 93.4738368,270.197408 Z M3.90749488,11.7375017 C3.90749488,7.31424838 7.49538862,3.72849306 11.9040378,3.72849306 L166.749726,3.72849306 C171.166094,3.72849306 174.746268,7.30375176 174.746268,11.7375017 L174.746268,109.939378 C174.746268,114.362632 171.158375,117.948387 166.749726,117.948387 L11.9040378,117.948387 C7.48766909,117.948387 3.90749488,114.373128 3.90749488,109.939378 L3.90749488,11.7375017 Z" id="Shape"></path>
                    </g>
                </g>
                <path d="M25.8390157,29.7157195 C24.8484575,29.7628402 23.456959,29.7628402 22.4742623,29.7628402 C21.3972267,29.7628402 18.9837237,29.7628402 17.2305928,29.7157195 L17.2305928,30.0377111 C18.2447358,30.0848318 18.4334135,30.2497543 18.4334135,31.4199187 L18.4334135,39.3990266 C18.4334135,40.569191 18.2525973,40.7341135 17.2305928,40.7812342 L17.2305928,41.1032258 C17.9302728,41.0796654 18.8579385,41.0561051 19.7856042,41.0561051 C20.9333939,41.0561051 22.0575989,41.0796654 22.7179711,41.1032258 L22.7179711,40.7498204 C21.2871647,40.7341135 20.9962865,40.5613376 20.9962865,39.3047852 L20.9962865,35.605809 L21.5623198,35.605809 C22.8516178,35.605809 23.3547585,36.6031975 23.5277131,37.7262412 L23.8972071,37.7262412 C23.8107298,36.5011026 23.7950066,35.9749212 23.7950066,35.4408865 C23.7950066,35.2209898 23.7871451,34.9932397 23.7871451,34.7183688 C23.7871451,34.3414031 23.8028682,33.8623425 23.8500377,33.1555318 L23.4726821,33.1555318 C23.3075891,34.027265 22.8516178,35.2838174 21.5623198,35.2838174 L20.9962865,35.2838174 L20.9962865,31.2314359 C20.9962865,30.2261939 21.1692411,30.0848318 22.1047683,30.0848318 L22.6393553,30.0848318 C24.1409159,30.0848318 24.9821042,30.8858839 25.4066292,33.3832819 L25.7761232,33.3832819 C25.7446769,33.0848507 25.7289537,32.6372039 25.7289537,32.1581433 C25.7289537,31.6790827 25.7604,30.6895476 25.8390157,29.7157195 L25.8390157,29.7157195 Z M35.3949455,32.6057901 C34.7267118,32.7628591 33.9405544,32.8335402 33.044335,32.8335402 C32.7220105,32.8335402 32.3839629,32.8099798 32.0459152,32.778566 L32.0459152,33.1162645 C32.824211,33.1162645 33.0757813,33.5717647 33.0757813,34.5377394 L33.0757813,38.7628969 C33.0757813,39.823113 32.3682397,40.6241652 31.5113282,40.6241652 C30.7094477,40.6241652 30.5522162,40.0744235 30.5522162,39.2733713 L30.5522162,32.6057901 C29.8761209,32.7628591 29.0978251,32.8335402 28.2016058,32.8335402 C27.8792813,32.8335402 27.5412336,32.8099798 27.2031859,32.778566 L27.2031859,33.1162645 C27.9814817,33.1162645 28.2330521,33.5717647 28.2330521,34.5377394 L28.2330521,38.6136813 C28.2330521,39.6738974 28.3666988,40.2943202 28.7204696,40.6948463 C29.0585173,41.071812 29.5931043,41.3309759 30.4814621,41.3309759 C31.5899439,41.3309759 32.5490559,40.9068895 33.0757813,39.8309665 L33.0757813,41.2838552 C33.7440151,41.1267862 34.5301724,41.0639585 35.4263918,41.0639585 C35.7487163,41.0639585 36.086764,41.0796654 36.4248116,41.1110793 L36.4248116,40.7733808 C35.6465159,40.7733808 35.3949455,40.3178805 35.3949455,39.3597593 L35.3949455,32.6057901 Z M41.1694584,28.5141413 C40.5012247,28.6712103 39.7150673,28.7340379 38.818848,28.7340379 C38.4965234,28.7340379 38.1584758,28.718331 37.8204281,28.6869172 L37.8204281,29.0246157 C38.5987239,29.0246157 38.8502943,29.4801159 38.8502943,30.4460906 L38.8502943,39.6110698 C38.8502943,40.5063634 38.5751392,40.7655273 37.8204281,40.7655273 L37.8204281,41.1032258 C38.2528147,41.0875189 39.2119266,41.0403982 40.053115,41.0403982 C40.8864418,41.0403982 41.7905227,41.0875189 42.1993246,41.1032258 L42.1993246,40.7655273 C41.4524751,40.7655273 41.1694584,40.5063634 41.1694584,39.6110698 L41.1694584,28.5141413 Z M46.9439713,28.5141413 C46.2757376,28.6712103 45.4895803,28.7340379 44.5933609,28.7340379 C44.2710364,28.7340379 43.9329887,28.718331 43.594941,28.6869172 L43.594941,29.0246157 C44.3732368,29.0246157 44.6248072,29.4801159 44.6248072,30.4460906 L44.6248072,39.6110698 C44.6248072,40.5063634 44.3496521,40.7655273 43.594941,40.7655273 L43.594941,41.1032258 C44.0273276,41.0875189 44.9864396,41.0403982 45.8276279,41.0403982 C46.6609547,41.0403982 47.5650357,41.0875189 47.9738375,41.1032258 L47.9738375,40.7655273 C47.226988,40.7655273 46.9439713,40.5063634 46.9439713,39.6110698 L46.9439713,28.5141413 Z M57.887656,36.5011026 L58.7445675,36.5011026 C62.5417075,36.5011026 63.5558505,34.4592049 63.5558505,32.9042213 C63.5558505,31.0350995 62.0935978,29.7314264 59.0983383,29.7314264 C58.6895365,29.7314264 57.6203625,29.7628402 56.5669117,29.7628402 C55.6628307,29.7628402 54.6644109,29.7471333 54.1219623,29.7157195 L54.1219623,30.0377111 C55.1361053,30.0848318 55.3247831,30.2497543 55.3247831,31.4199187 L55.3247831,39.3990266 C55.3247831,40.569191 55.1439669,40.7341135 54.1219623,40.7812342 L54.1219623,41.1032258 C54.8216424,41.0796654 55.749308,41.0561051 56.6769737,41.0561051 C57.8247634,41.0561051 58.9489684,41.0796654 59.6093406,41.1032258 L59.6093406,40.7498204 C58.1785342,40.7341135 57.887656,40.5613376 57.887656,39.3047852 L57.887656,36.5011026 Z M58.8860759,30.0377111 C60.3483285,30.0377111 60.8829155,31.0508065 60.8829155,33.0769972 C60.8829155,34.7183688 60.4819753,36.179111 58.5794745,36.179111 L57.887656,36.179111 L57.887656,31.4199187 C57.887656,30.3125819 58.0606106,30.0377111 58.8860759,30.0377111 L58.8860759,30.0377111 Z M67.1369844,28.631943 C66.2329035,28.631943 65.6668702,29.1031502 65.6668702,29.8727886 C65.6668702,30.6502804 66.2329035,31.1214875 67.1369844,31.1214875 C68.0253422,31.1214875 68.5992371,30.6502804 68.5992371,29.8727886 C68.5992371,29.1031502 68.0253422,28.631943 67.1369844,28.631943 L67.1369844,28.631943 Z M68.4026978,32.6057901 C67.7266024,32.7628591 66.9483067,32.8335402 66.0520873,32.8335402 C65.7297628,32.8335402 65.3917151,32.8099798 65.0536675,32.778566 L65.0536675,33.1162645 C65.8319632,33.1162645 66.0835336,33.5717647 66.0835336,34.5377394 L66.0835336,39.6110698 C66.0835336,40.5063634 65.8005169,40.7655273 65.0536675,40.7655273 L65.0536675,41.1032258 C65.4781924,41.0875189 66.445166,41.0403982 67.2784928,41.0403982 C68.1196811,41.0403982 69.0237621,41.0875189 69.4325639,41.1032258 L69.4325639,40.7655273 C68.6778528,40.7655273 68.4026978,40.5063634 68.4026978,39.6110698 L68.4026978,32.6057901 Z M75.0734301,32.5586694 C72.7935737,32.5586694 71.0954739,34.0822392 71.0954739,36.9880166 C71.0954739,40.0037424 72.7464043,41.3309759 74.8454444,41.3309759 C76.6850526,41.3309759 77.6756109,39.995889 78.0451048,38.7943107 L77.7620882,38.6922159 C77.1095776,39.7681389 76.2526661,40.0037424 75.6551865,40.0037424 C74.5938741,40.0037424 73.5247001,39.2576644 73.5247001,36.7602665 C73.5247001,34.5770067 74.2243801,32.951342 75.5608476,32.951342 C75.9853726,32.951342 76.3627281,33.1162645 76.5278212,33.3361612 C75.9539263,33.4932302 75.4665087,33.9801443 75.4665087,34.6555412 C75.4665087,35.3780588 75.9460647,35.849266 76.7086373,35.849266 C77.4476253,35.849266 77.9822122,35.3152312 77.9822122,34.5534463 C77.9822122,33.9173167 77.636303,33.3832819 77.0938544,33.0534369 C76.6300216,32.7628591 75.9067568,32.5586694 75.0734301,32.5586694 L75.0734301,32.5586694 Z M82.9155368,32.7942729 L82.9155368,30.1476594 C82.2473031,30.5089182 81.5004536,30.6581338 80.5963726,30.6659873 L80.5963726,32.7942729 L79.244182,32.7942729 L79.244182,33.1162645 L80.5963726,33.1162645 L80.5963726,38.5430003 C80.5963726,39.666044 80.7142962,40.3178805 81.1781291,40.7890877 C81.5397614,41.1503465 82.0664869,41.3309759 82.7897516,41.3309759 C83.9768492,41.3309759 84.6372214,40.6398721 84.9909922,39.6817509 L84.7236987,39.5325353 C84.4092358,40.2471995 84.0161571,40.49851 83.6230784,40.49851 C83.151384,40.49851 82.9155368,40.2629064 82.9155368,39.6032164 L82.9155368,33.1162645 L84.8180376,33.1162645 L84.8180376,32.7942729 L82.9155368,32.7942729 Z M94.0909507,32.6057901 C93.422717,32.7628591 92.6365596,32.8335402 91.7403402,32.8335402 C91.4180157,32.8335402 91.0799681,32.8099798 90.7419204,32.778566 L90.7419204,33.1162645 C91.5202162,33.1162645 91.7717865,33.5717647 91.7717865,34.5377394 L91.7717865,38.7628969 C91.7717865,39.823113 91.0642449,40.6241652 90.2073334,40.6241652 C89.4054529,40.6241652 89.2482214,40.0744235 89.2482214,39.2733713 L89.2482214,32.6057901 C88.5721261,32.7628591 87.7938303,32.8335402 86.897611,32.8335402 C86.5752865,32.8335402 86.2372388,32.8099798 85.8991911,32.778566 L85.8991911,33.1162645 C86.6774869,33.1162645 86.9290573,33.5717647 86.9290573,34.5377394 L86.9290573,38.6136813 C86.9290573,39.6738974 87.062704,40.2943202 87.4164748,40.6948463 C87.7545225,41.071812 88.2891095,41.3309759 89.1774673,41.3309759 C90.2859491,41.3309759 91.2450611,40.9068895 91.7717865,39.8309665 L91.7717865,41.2838552 C92.4400203,41.1267862 93.2261776,41.0639585 94.122397,41.0639585 C94.4447215,41.0639585 94.7827692,41.0796654 95.1208168,41.1110793 L95.1208168,40.7733808 C94.3425211,40.7733808 94.0909507,40.3178805 94.0909507,39.3597593 L94.0909507,32.6057901 Z M102.121735,32.5586694 C101.107592,32.5586694 100.329296,33.2419197 99.9440794,34.1057995 L99.9440794,32.6057901 C99.267984,32.7628591 98.4896883,32.8335402 97.5934689,32.8335402 C97.2711444,32.8335402 96.9330967,32.8099798 96.5950491,32.778566 L96.5950491,33.1162645 C97.3733448,33.1162645 97.6249152,33.5717647 97.6249152,34.5377394 L97.6249152,39.6110698 C97.6249152,40.5063634 97.3418985,40.7655273 96.5950491,40.7655273 L96.5950491,41.1032258 C97.0352972,41.0875189 98.0179939,41.0403982 98.8984901,41.0403982 C99.9126331,41.0403982 100.958222,41.0875189 101.453501,41.1032258 L101.453501,40.7655273 C100.439358,40.7655273 99.9440794,40.482803 99.9440794,39.4461473 L99.9440794,35.189576 C99.9440794,34.3256962 100.549421,33.2576266 101.406332,33.1162645 C101.484948,33.0927041 101.563564,33.0769972 101.634318,33.0769972 C101.712933,33.0769972 101.783688,33.0927041 101.84658,33.1162645 C101.44564,33.3832819 101.139039,33.7681011 101.139039,34.35711 C101.139039,34.9853862 101.587148,35.3937658 102.341859,35.3937658 C103.09657,35.3937658 103.591849,34.8361706 103.591849,34.0429719 C103.591849,33.3204543 103.167324,32.5586694 102.121735,32.5586694 L102.121735,32.5586694 Z M109.382086,40.0037424 C108.360081,40.0037424 107.283045,39.1320092 107.283045,36.8937752 C107.283045,36.6346113 107.290907,36.3675939 107.314492,36.1319903 L111.819173,36.1319903 C111.819173,33.611032 110.671384,32.5586694 108.792468,32.5586694 C106.50475,32.5586694 104.853819,34.0429719 104.853819,37.0272839 C104.853819,39.9644752 106.394688,41.3309759 108.564482,41.3309759 C110.349059,41.3309759 111.40251,40.0351562 111.787727,38.8257245 L111.496849,38.7157762 C110.844338,39.7838458 110.026735,40.0037424 109.382086,40.0037424 L109.382086,40.0037424 Z M108.698129,32.9042213 C109.484286,32.9042213 109.822334,34.2550151 109.790887,35.8257056 L107.267322,35.8257056 C107.400969,33.7445407 107.974864,32.9042213 108.698129,32.9042213 L108.698129,32.9042213 Z M132.063099,29.7157195 C131.46562,29.7471333 130.4672,29.7628402 129.531673,29.7628402 L128.391745,29.7628402 L125.42007,37.5377583 L122.17324,29.7157195 C121.47356,29.7471333 120.561617,29.7628402 119.62609,29.7628402 C119.122949,29.7628402 118.564778,29.7471333 118.22673,29.7157195 L118.22673,30.0377111 C119.248735,30.0848318 119.437412,30.2497543 119.437412,31.4199187 L119.437412,38.660802 C119.437412,40.2157857 119.256596,40.6398721 118.22673,40.7812342 L118.22673,41.1032258 C118.564778,41.071812 119.122949,41.0561051 119.62609,41.0561051 C120.207847,41.0561051 120.954696,41.071812 121.371359,41.1032258 L121.371359,40.7812342 C119.948415,40.6398721 119.806906,40.2314926 119.806906,38.4644657 L119.806906,30.7523753 L124.154356,41.1267862 L124.413788,41.1267862 L128.289544,31.0272461 L128.289544,39.3990266 C128.289544,40.569191 128.085143,40.7341135 126.984523,40.7812342 L126.984523,41.1032258 C127.534833,41.071812 128.501807,41.0561051 129.531673,41.0561051 C130.4672,41.0561051 131.46562,41.071812 132.063099,41.1032258 L132.063099,40.7812342 C131.041095,40.7341135 130.852417,40.569191 130.852417,39.3990266 L130.852417,31.4199187 C130.852417,30.2497543 131.033233,30.0848318 132.063099,30.0377111 L132.063099,29.7157195 Z M136.084481,36.8937752 C136.084481,36.6346113 136.092343,36.3675939 136.115928,36.1319903 L140.620609,36.1319903 C140.620609,33.611032 139.47282,32.5586694 137.593904,32.5586694 C135.306186,32.5586694 133.655255,34.0429719 133.655255,37.0272839 C133.655255,39.9644752 135.196124,41.3309759 137.365918,41.3309759 C139.150495,41.3309759 140.203946,40.0351562 140.589163,38.8257245 L140.298285,38.7157762 C139.645774,39.7838458 138.828171,40.0037424 138.183522,40.0037424 C137.161517,40.0037424 136.084481,39.1320092 136.084481,36.8937752 Z M137.499565,32.9042213 C138.285722,32.9042213 138.62377,34.2550151 138.592323,35.8257056 L136.068758,35.8257056 C136.202405,33.7445407 136.7763,32.9042213 137.499565,32.9042213 L137.499565,32.9042213 Z M148.219007,32.5586694 C147.086941,32.5586694 146.127829,32.9670489 145.593242,34.0586788 L145.593242,32.6057901 C144.917146,32.7628591 144.138851,32.8335402 143.242631,32.8335402 C142.920307,32.8335402 142.582259,32.8099798 142.244211,32.778566 L142.244211,33.1162645 C143.022507,33.1162645 143.274078,33.5717647 143.274078,34.5377394 L143.274078,39.6110698 C143.274078,40.5063634 142.991061,40.7655273 142.244211,40.7655273 L142.244211,41.1032258 C142.668736,41.0875189 143.63571,41.0403982 144.461175,41.0403982 C145.247333,41.0403982 146.080659,41.0875189 146.458015,41.1032258 L146.458015,40.7655273 C145.821227,40.7655273 145.593242,40.5063634 145.593242,39.6110698 L145.593242,35.1267484 C145.593242,34.0665323 146.28506,33.2654801 147.189141,33.2654801 C147.991022,33.2654801 148.179699,33.8073683 148.179699,34.6084205 L148.179699,39.6110698 C148.179699,40.5063634 147.951714,40.7655273 147.314926,40.7655273 L147.314926,41.1032258 C147.708005,41.0875189 148.58064,41.0403982 149.406105,41.0403982 C150.192262,41.0403982 151.119928,41.0875189 151.52873,41.1032258 L151.52873,40.7655273 C150.78188,40.7655273 150.498864,40.5063634 150.498864,39.6110698 L150.498864,35.275964 C150.498864,34.184334 150.349494,33.5953251 149.995723,33.1869456 C149.665537,32.8099798 149.138811,32.5586694 148.219007,32.5586694 L148.219007,32.5586694 Z M160.903843,32.6057901 C160.23561,32.7628591 159.449452,32.8335402 158.553233,32.8335402 C158.230908,32.8335402 157.892861,32.8099798 157.554813,32.778566 L157.554813,33.1162645 C158.333109,33.1162645 158.584679,33.5717647 158.584679,34.5377394 L158.584679,38.7628969 C158.584679,39.823113 157.877138,40.6241652 157.020226,40.6241652 C156.218346,40.6241652 156.061114,40.0744235 156.061114,39.2733713 L156.061114,32.6057901 C155.385019,32.7628591 154.606723,32.8335402 153.710504,32.8335402 C153.388179,32.8335402 153.050131,32.8099798 152.712084,32.778566 L152.712084,33.1162645 C153.49038,33.1162645 153.74195,33.5717647 153.74195,34.5377394 L153.74195,38.6136813 C153.74195,39.6738974 153.875597,40.2943202 154.229367,40.6948463 C154.567415,41.071812 155.102002,41.3309759 155.99036,41.3309759 C157.098842,41.3309759 158.057954,40.9068895 158.584679,39.8309665 L158.584679,41.2838552 C159.252913,41.1267862 160.03907,41.0639585 160.93529,41.0639585 C161.257614,41.0639585 161.595662,41.0796654 161.933709,41.1110793 L161.933709,40.7733808 C161.155414,40.7733808 160.903843,40.3178805 160.903843,39.3597593 L160.903843,32.6057901 Z M89.3738194,59.517827 C90.2150078,59.517827 90.7417332,60.2167843 90.7417332,61.3476815 C90.7417332,62.4785786 90.2150078,63.1775359 89.3659579,63.1775359 C88.5404926,63.1775359 88.0452135,62.4864321 88.0452135,61.3476815 C88.0452135,60.2010774 88.5404926,59.517827 89.3738194,59.517827 L89.3738194,59.517827 Z M89.6332514,54.7429278 C85.7103262,54.7429278 82.9823602,57.3973948 82.9823602,61.2927073 C82.9823602,65.3529423 85.7810803,67.8424868 89.7590365,67.8424868 C90.6080865,67.8424868 91.409967,67.7325384 92.0231697,67.551909 L92.0231697,66.2953566 C91.57506,66.4602791 90.7181485,66.5702274 89.8769601,66.5702274 C86.6379919,66.5702274 84.4288897,64.6382781 84.4288897,61.3319745 C84.4288897,58.1748866 86.5515145,55.9916268 89.5782203,55.9916268 C92.5577567,55.9916268 94.5310116,57.8371881 94.5310116,60.6958449 C94.5310116,62.3686303 93.9964246,63.3503119 93.2259904,63.3503119 C92.7307113,63.3503119 92.479141,63.00476 92.479141,62.4628717 L92.479141,58.2612746 L90.8832415,58.2612746 L90.8832415,59.2036889 L90.7731795,59.2036889 C90.4665781,58.5125851 89.7590365,58.0884986 88.9099866,58.0884986 C87.3376719,58.0884986 86.2606363,59.3921717 86.2606363,61.3005607 C86.2606363,63.2953377 87.353395,64.6225712 88.9886023,64.6225712 C89.9005449,64.6225712 90.560917,64.1984848 90.8832415,63.4131395 L90.9933036,63.4131395 C91.1662582,64.1749244 91.9131077,64.6461316 92.8879428,64.6461316 C94.8061667,64.6461316 95.9775412,63.0518807 95.9775412,60.5780431 C95.9775412,57.0832567 93.3596372,54.7429278 89.6332514,54.7429278 L89.6332514,54.7429278 Z M32.399998,91.1419355 L32.399998,87.4246346 L36.2456177,87.4246346 L36.2456177,85.8604886 L32.399998,85.8604886 L32.399998,83.3277501 L36.6124912,83.3277501 L36.6124912,81.6981587 L30.421502,81.6981587 L30.421502,91.1419355 L32.399998,91.1419355 Z M44.2089549,91.1419355 L46.3119258,91.1419355 L43.0231676,81.6981587 L40.6974521,81.6981587 L37.4152452,91.1419355 L39.4461517,91.1419355 L40.1667959,88.8513451 L43.4883107,88.8513451 L44.2089549,91.1419355 Z M41.8046237,83.5044528 L41.8504829,83.5044528 L43.0624755,87.3722782 L40.5926311,87.3722782 L41.8046237,83.5044528 Z M51.1633902,91.1419355 L51.1633902,83.3277501 L53.9345948,83.3277501 L53.9345948,81.6981587 L46.4202409,81.6981587 L46.4202409,83.3277501 L49.1848942,83.3277501 L49.1848942,91.1419355 L51.1633902,91.1419355 Z M60.1945911,91.1419355 L60.1945911,83.3277501 L62.9657958,83.3277501 L62.9657958,81.6981587 L55.4514418,81.6981587 L55.4514418,83.3277501 L58.2160951,83.3277501 L58.2160951,91.1419355 L60.1945911,91.1419355 Z M69.6188707,91.1419355 L69.6188707,87.6144263 L72.9141803,81.6981587 L70.7915554,81.6981587 L68.6689306,85.7295977 L68.6230714,85.7295977 L66.5069979,81.6981587 L64.3516165,81.6981587 L67.6403747,87.6144263 L67.6403747,91.1419355 L69.6188707,91.1419355 Z M79.0169451,91.1419355 C81.0347489,91.1419355 82.2860494,90.101353 82.2860494,88.4390389 C82.2860494,87.189031 81.3426606,86.2531612 80.0586036,86.1549931 L80.0586036,86.1026367 C81.0609542,85.9521122 81.8340089,85.0882324 81.8340089,84.0541945 C81.8340089,82.6078503 80.720286,81.6981587 78.9448807,81.6981587 L74.7716954,81.6981587 L74.7716954,91.1419355 L79.0169451,91.1419355 Z M76.7501914,83.1706811 L78.4338784,83.1706811 C79.3576133,83.1706811 79.8882695,83.602621 79.8882695,84.3617881 C79.8882695,85.1602224 79.2855488,85.624885 78.2307877,85.624885 L76.7501914,85.624885 L76.7501914,83.1706811 Z M76.7501914,89.6694131 L76.7501914,86.9272492 L78.4666349,86.9272492 C79.6327683,86.9272492 80.2682455,87.3984564 80.2682455,88.2819698 C80.2682455,89.1851169 79.6524223,89.6694131 78.5124941,89.6694131 L76.7501914,89.6694131 Z M90.4983364,91.1419355 L92.6013073,91.1419355 L89.3125491,81.6981587 L86.9868336,81.6981587 L83.7046266,91.1419355 L85.7355331,91.1419355 L86.4561774,88.8513451 L89.7776922,88.8513451 L90.4983364,91.1419355 Z M88.0940052,83.5044528 L88.1398644,83.5044528 L89.3518569,87.3722782 L86.8820126,87.3722782 L88.0940052,83.5044528 Z M98.2651343,81.5345451 C95.4611731,81.5345451 93.7054216,83.4128292 93.7054216,86.4233194 C93.7054216,89.427265 95.4611731,91.3055491 98.2651343,91.3055491 C101.062544,91.3055491 102.824847,89.427265 102.824847,86.4233194 C102.824847,83.4128292 101.062544,81.5345451 98.2651343,81.5345451 L98.2651343,81.5345451 Z M98.2651343,83.1837702 C99.8112437,83.1837702 100.800492,84.4403226 100.800492,86.4233194 C100.800492,88.3997716 99.8112437,89.6497795 98.2651343,89.6497795 C96.7124735,89.6497795 95.7232255,88.3997716 95.7232255,86.4233194 C95.7232255,84.4403226 96.7190248,83.1837702 98.2651343,83.1837702 L98.2651343,83.1837702 Z M105.383352,91.22047 C105.97297,91.22047 106.438113,90.7492629 106.438113,90.1667985 C106.438113,89.5777895 105.97297,89.1131269 105.383352,89.1131269 C104.793734,89.1131269 104.328591,89.5777895 104.328591,90.1667985 C104.328591,90.7492629 104.793734,91.22047 105.383352,91.22047 L105.383352,91.22047 Z M118.934958,81.6981587 L116.641999,81.6981587 L113.955961,88.3932271 L113.903551,88.3932271 L111.217513,81.6981587 L108.924554,81.6981587 L108.924554,91.1419355 L110.686857,91.1419355 L110.686857,84.7675498 L110.739268,84.7675498 L113.307382,91.0503119 L114.552131,91.0503119 L117.120245,84.7675498 L117.172655,84.7675498 L117.172655,91.1419355 L118.934958,91.1419355 L118.934958,81.6981587 Z M127.664799,89.5057995 L123.380241,89.5057995 L123.380241,87.1235856 L127.4224,87.1235856 L127.4224,85.6052514 L123.380241,85.6052514 L123.380241,83.3277501 L127.664799,83.3277501 L127.664799,81.6981587 L121.401745,81.6981587 L121.401745,91.1419355 L127.664799,91.1419355 L127.664799,89.5057995 Z M131.880786,91.1419355 L131.880786,84.9573415 L131.939748,84.9573415 L136.361883,91.1419355 L137.99971,91.1419355 L137.99971,81.6981587 L136.106382,81.6981587 L136.106382,87.8500299 L136.053971,87.8500299 L131.638387,81.6981587 L129.987457,81.6981587 L129.987457,91.1419355 L131.880786,91.1419355 Z M142.444994,81.6981587 L140.466498,81.6981587 L140.466498,87.8042181 C140.466498,89.8853831 142.006056,91.3055491 144.430041,91.3055491 C146.847475,91.3055491 148.387033,89.8853831 148.387033,87.8042181 L148.387033,81.6981587 L146.408537,81.6981587 L146.408537,87.6078818 C146.408537,88.8186224 145.694444,89.6105122 144.430041,89.6105122 C143.159086,89.6105122 142.444994,88.8186224 142.444994,87.6078818 L142.444994,81.6981587 Z" id="Full-Picture-Menu-@"></path>
            </g>
        </g>
    </g>
</svg>