<?xml version="1.0" encoding="UTF-8" standalone="no"?>
<svg width="815px" height="599px" viewBox="0 0 815 599" version="1.1" xmlns="http://www.w3.org/2000/svg" xmlns:xlink="http://www.w3.org/1999/xlink">
    <!-- Generator: Sketch 40.1 (33804) - http://www.bohemiancoding.com/sketch -->
    <title>section_browser</title>
    <desc>Created with Sketch.</desc>
    <defs>
        <rect id="path-1" x="0" y="0" width="1228" height="599"></rect>
        <rect id="path-3" x="263" y="168" width="732" height="443"></rect>
        <mask id="mask-4" maskContentUnits="userSpaceOnUse" maskUnits="objectBoundingBox" x="0" y="0" width="732" height="443" fill="white">
            <use xlink:href="#path-3"></use>
        </mask>
        <rect id="path-5" x="0" y="0" width="50.8359375" height="21.7760769" rx="3"></rect>
        <mask id="mask-6" maskContentUnits="userSpaceOnUse" maskUnits="objectBoundingBox" x="0" y="0" width="50.8359375" height="21.7760769" fill="white">
            <use xlink:href="#path-5"></use>
        </mask>
        <rect id="path-7" x="2.259375" y="2.29221862" width="45.6699982" height="17.1916397" rx="2"></rect>
        <mask id="mask-8" maskContentUnits="userSpaceOnUse" maskUnits="objectBoundingBox" x="0" y="0" width="45.6699982" height="17.1916397" fill="white">
            <use xlink:href="#path-7"></use>
        </mask>
        <ellipse id="path-9" cx="53.6601563" cy="6.30360122" rx="6.21328125" ry="6.30360122"></ellipse>
        <mask id="mask-10" maskContentUnits="userSpaceOnUse" maskUnits="objectBoundingBox" x="0" y="0" width="12.4265625" height="12.6072024" fill="white">
            <use xlink:href="#path-9"></use>
        </mask>
        <ellipse id="path-11" cx="69.4757813" cy="6.30360122" rx="6.21328125" ry="6.30360122"></ellipse>
        <mask id="mask-12" maskContentUnits="userSpaceOnUse" maskUnits="objectBoundingBox" x="0" y="0" width="12.4265625" height="12.6072024" fill="white">
            <use xlink:href="#path-11"></use>
        </mask>
        <rect id="path-13" x="21.4640625" y="54.3255814" width="680.071875" height="65.6434109" rx="12"></rect>
        <mask id="mask-14" maskContentUnits="userSpaceOnUse" maskUnits="objectBoundingBox" x="0" y="0" width="680.071875" height="65.6434109" fill="white">
            <use xlink:href="#path-13"></use>
        </mask>
    </defs>
    <g id="final" stroke="none" stroke-width="1" fill="none" fill-rule="evenodd">
        <g id="Artboard-Copy-8" transform="translate(-302.000000, -1860.000000)">
            <g id="section_browser" transform="translate(81.000000, 1860.000000)">
                <mask id="mask-2" fill="white">
                    <use xlink:href="#path-1"></use>
                </mask>
                <g id="Mask"></g>
                <g id="Rectangle-10" mask="url(#mask-2)" stroke-linecap="square" stroke-width="10" stroke="#C9D6DE">
                    <use mask="url(#mask-4)" xlink:href="#path-3"></use>
                </g>
                <path d="M231.41613,1616.23509 C231.41613,1680.14909 283.362724,1732.07907 347.368384,1732.07907 L909.925734,1732.07907 C974.055766,1732.07907 1025.87799,1680.26216 1025.87799,1616.23509 L1025.87799,126.764913 C1025.87799,62.850911 973.931394,10.9209253 909.925734,10.9209253 L347.368384,10.9209253 C283.238351,10.9209253 231.41613,62.7378447 231.41613,126.764913 L231.41613,1616.23509 Z M351.738843,0 L905.555275,0 C977.597907,0 1036,58.4499643 1036,130.336477 L1036,1596.66352 C1036,1668.64637 977.735315,1727 905.555275,1727 L351.738843,1727 C279.69621,1727 221.294118,1668.55004 221.294118,1596.66352 L221.294118,130.336477 C221.294118,58.3536282 279.558803,0 351.738843,0 Z" id="Combined-Shape" fill-opacity="0.386520607" fill="#CDD7DB" mask="url(#mask-2)"></path>
                <rect id="Rectangle-4" stroke="#CDD7DB" stroke-width="3" stroke-linecap="square" opacity="0.449999988" mask="url(#mask-2)" x="575" y="106" width="108" height="12" rx="6"></rect>
                <g id="browser" mask="url(#mask-2)">
                    <g transform="translate(267.000000, 172.000000)">
                        <g id="Nav-Bar" stroke="none" stroke-width="1" fill="none">
                            <g id="Nav-Bar-Background" fill="#CDD7DB">
                                <rect id="Line" x="0" y="144.868217" width="723" height="3"></rect>
                            </g>
                            <g id="Status-Bar" transform="translate(0.000000, 1.000000)">
                                <rect id="Background" fill-opacity="0" fill="#FFFFFF" x="0" y="0" width="723" height="46.9904818"></rect>
                                <g id="Battery" transform="translate(572.956250, 7.876656)">
                                    <g id="Battery-Icon" transform="translate(73.262500, 4.730547)">
                                        <use id="Battery" stroke="#CDD7DB" mask="url(#mask-6)" stroke-width="2" xlink:href="#path-5"></use>
                                        <use id="Charge" stroke="#CDD7DB" mask="url(#mask-8)" stroke-width="2" fill="#CDD7DB" xlink:href="#path-7"></use>
                                        <path d="M55.3546875,10.8474153 C55.3546875,12.8682778 53.8817394,14.5401137 51.965625,14.8181747 L51.965625,6.87665587 C53.8817394,7.15471686 55.3546875,8.82655275 55.3546875,10.8474153 Z" id="+" fill="#CDD7DB"></path>
                                    </g>
                                    <text id="100%" font-family="HelveticaNeue, Helvetica Neue" font-size="24" font-weight="normal" fill="#CDD7DB">
                                        <tspan x="0" y="23">100%</tspan>
                                    </text>
                                </g>
                                <g id="Signal" transform="translate(21.685937, 19.191640)" fill="#CDD7DB">
                                    <ellipse id="Oval-1" cx="6.21328125" cy="6.30360122" rx="6.21328125" ry="6.30360122"></ellipse>
                                    <ellipse id="Oval-1-copy" cx="22.0289062" cy="6.30360122" rx="6.21328125" ry="6.30360122"></ellipse>
                                    <ellipse id="Oval-1-copy-2" cx="37.8445312" cy="6.30360122" rx="6.21328125" ry="6.30360122"></ellipse>
                                    <use id="Oval-1-copy-3" stroke="#CDD7DB" mask="url(#mask-10)" stroke-width="2" xlink:href="#path-9"></use>
                                    <use id="Oval-1-copy-4" stroke="#CDD7DB" mask="url(#mask-12)" stroke-width="2" xlink:href="#path-11"></use>
                                </g>
                                <text id="4G" font-family="HelveticaNeue, Helvetica Neue" font-size="23" font-weight="normal" fill="#CDD7DB">
                                    <tspan x="105.660313" y="32.0227652">4G</tspan>
                                </text>
                                <text id="12:15-PM" font-family="HelveticaNeue-Medium, Helvetica Neue" font-size="24" font-weight="400" letter-spacing="0.599999666" fill="#CDD7DB">
                                    <tspan x="307.068001" y="32">12:15 PM</tspan>
                                </text>
                            </g>
                            <use id="Url-Text-Field" stroke="#CDD7DB" mask="url(#mask-14)" stroke-width="4" xlink:href="#path-13"></use>
                            <path d="M261.765,83.74 L261.765,97 L264.315,97 L264.315,83.74 L267.315,83.74 L267.315,81.49 L264.315,81.49 L264.315,79.33 C264.315,78.6499966 264.484998,78.1900012 264.825,77.95 C265.165002,77.7099988 265.644997,77.59 266.265,77.59 C266.485001,77.59 266.724999,77.6049999 266.985,77.635 C267.245001,77.6650002 267.484999,77.7199996 267.705,77.8 L267.705,75.58 C267.464999,75.4999996 267.190002,75.4400002 266.88,75.4 C266.569998,75.3599998 266.295001,75.34 266.055,75.34 C264.654993,75.34 263.590004,75.6649968 262.86,76.315 C262.129996,76.9650033 261.765,77.9199937 261.765,79.18 L261.765,81.49 L259.155,81.49 L259.155,83.74 L261.765,83.74 Z M284.335,96.94 C283.894998,97.2000013 283.285004,97.33 282.505,97.33 C281.844997,97.33 281.320002,97.1450019 280.93,96.775 C280.539998,96.4049982 280.345,95.8000042 280.345,94.96 C279.644996,95.8000042 278.830005,96.4049982 277.9,96.775 C276.969995,97.1450019 275.965005,97.33 274.885,97.33 C274.184996,97.33 273.520003,97.2500008 272.89,97.09 C272.259997,96.9299992 271.715002,96.6800017 271.255,96.34 C270.794998,95.9999983 270.430001,95.5550028 270.16,95.005 C269.889999,94.4549973 269.755,93.7900039 269.755,93.01 C269.755,92.1299956 269.904998,91.4100028 270.205,90.85 C270.505001,90.2899972 270.899998,89.8350018 271.39,89.485 C271.880002,89.1349983 272.439997,88.8700009 273.07,88.69 C273.700003,88.5099991 274.344997,88.3600006 275.005,88.24 C275.705003,88.0999993 276.369997,87.9950004 277,87.925 C277.630003,87.8549997 278.184998,87.7550007 278.665,87.625 C279.145002,87.4949994 279.524999,87.3050013 279.805,87.055 C280.085001,86.8049988 280.225,86.4400024 280.225,85.96 C280.225,85.3999972 280.120001,84.9500017 279.91,84.61 C279.699999,84.2699983 279.430002,84.0100009 279.1,83.83 C278.769998,83.6499991 278.400002,83.5300003 277.99,83.47 C277.579998,83.4099997 277.175002,83.38 276.775,83.38 C275.694995,83.38 274.795004,83.584998 274.075,83.995 C273.354996,84.4050021 272.965,85.1799943 272.905,86.32 L270.355,86.32 C270.395,85.3599952 270.594998,84.5500033 270.955,83.89 C271.315002,83.2299967 271.794997,82.6950021 272.395,82.285 C272.995003,81.874998 273.679996,81.5800009 274.45,81.4 C275.220004,81.2199991 276.044996,81.13 276.925,81.13 C277.625003,81.13 278.319997,81.1799995 279.01,81.28 C279.700003,81.3800005 280.324997,81.5849985 280.885,81.895 C281.445003,82.2050016 281.894998,82.6399972 282.235,83.2 C282.575002,83.7600028 282.745,84.4899955 282.745,85.39 L282.745,93.37 C282.745,93.970003 282.78,94.4099986 282.85,94.69 C282.92,94.9700014 283.154998,95.11 283.555,95.11 C283.775001,95.11 284.034998,95.0600005 284.335,94.96 L284.335,96.94 Z M280.195,88.99 C279.874998,89.2300012 279.455003,89.4049995 278.935,89.515 C278.414997,89.6250006 277.870003,89.7149997 277.3,89.785 C276.729997,89.8550004 276.155003,89.9349996 275.575,90.025 C274.994997,90.1150005 274.475002,90.259999 274.015,90.46 C273.554998,90.660001 273.180001,90.9449982 272.89,91.315 C272.599999,91.6850019 272.455,92.1899968 272.455,92.83 C272.455,93.2500021 272.539999,93.6049986 272.71,93.895 C272.880001,94.1850015 273.099999,94.4199991 273.37,94.6 C273.640001,94.7800009 273.954998,94.9099996 274.315,94.99 C274.675002,95.0700004 275.054998,95.11 275.455,95.11 C276.295004,95.11 277.014997,94.9950012 277.615,94.765 C278.215003,94.5349989 278.704998,94.2450018 279.085,93.895 C279.465002,93.5449983 279.744999,93.1650021 279.925,92.755 C280.105001,92.344998 280.195,91.9600018 280.195,91.6 L280.195,88.99 Z M291.245,81.49 L291.245,76.84 L288.695,76.84 L288.695,81.49 L286.055,81.49 L286.055,83.74 L288.695,83.74 L288.695,93.61 C288.695,94.3300036 288.764999,94.9099978 288.905,95.35 C289.045001,95.7900022 289.259999,96.1299988 289.55,96.37 C289.840001,96.6100012 290.219998,96.7749996 290.69,96.865 C291.160002,96.9550005 291.724997,97 292.385,97 L294.335,97 L294.335,94.75 L293.165,94.75 C292.764998,94.75 292.440001,94.7350002 292.19,94.705 C291.939999,94.6749999 291.745001,94.6100005 291.605,94.51 C291.464999,94.4099995 291.37,94.2700009 291.32,94.09 C291.27,93.9099991 291.245,93.6700015 291.245,93.37 L291.245,83.74 L294.335,83.74 L294.335,81.49 L291.245,81.49 Z M301.695,81.49 L301.695,76.84 L299.145,76.84 L299.145,81.49 L296.505,81.49 L296.505,83.74 L299.145,83.74 L299.145,93.61 C299.145,94.3300036 299.214999,94.9099978 299.355,95.35 C299.495001,95.7900022 299.709999,96.1299988 300,96.37 C300.290001,96.6100012 300.669998,96.7749996 301.14,96.865 C301.610002,96.9550005 302.174997,97 302.835,97 L304.785,97 L304.785,94.75 L303.615,94.75 C303.214998,94.75 302.890001,94.7350002 302.64,94.705 C302.389999,94.6749999 302.195001,94.6100005 302.055,94.51 C301.914999,94.4099995 301.82,94.2700009 301.77,94.09 C301.72,93.9099991 301.695,93.6700015 301.695,93.37 L301.695,83.74 L304.785,83.74 L304.785,81.49 L301.695,81.49 Z M314.695,99.07 C314.394998,99.8300038 314.100001,100.469997 313.81,100.99 C313.519999,101.510003 313.200002,101.934998 312.85,102.265 C312.499998,102.595002 312.110002,102.834999 311.68,102.985 C311.249998,103.135001 310.755003,103.21 310.195,103.21 C309.894998,103.21 309.595001,103.19 309.295,103.15 C308.994998,103.11 308.705001,103.040001 308.425,102.94 L308.425,100.6 C308.645001,100.700001 308.899999,100.785 309.19,100.855 C309.480001,100.925 309.724999,100.96 309.925,100.96 C310.445003,100.96 310.879998,100.835001 311.23,100.585 C311.580002,100.334999 311.844999,99.9800023 312.025,99.52 L313.075,96.91 L306.925,81.49 L309.805,81.49 L314.335,94.18 L314.395,94.18 L318.745,81.49 L321.445,81.49 L314.695,99.07 Z M324.695,75.58 L324.695,97 L327.245,97 L327.245,94.93 L327.305,94.93 C327.585001,95.3900023 327.929998,95.7749984 328.34,96.085 C328.750002,96.3950015 329.184998,96.6399991 329.645,96.82 C330.105002,97.0000009 330.569998,97.1299996 331.04,97.21 C331.510002,97.2900004 331.934998,97.33 332.315,97.33 C333.495006,97.33 334.529996,97.1200021 335.42,96.7 C336.310004,96.2799979 337.049997,95.7050036 337.64,94.975 C338.230003,94.2449963 338.669999,93.3900049 338.96,92.41 C339.250001,91.4299951 339.395,90.3900055 339.395,89.29 C339.395,88.1899945 339.245001,87.1500049 338.945,86.17 C338.644998,85.1899951 338.200003,84.3250037 337.61,83.575 C337.019997,82.8249962 336.280004,82.2300022 335.39,81.79 C334.499996,81.3499978 333.455006,81.13 332.255,81.13 C331.174995,81.13 330.185004,81.324998 329.285,81.715 C328.384995,82.1050019 327.725002,82.7299957 327.305,83.59 L327.245,83.59 L327.245,75.58 L324.695,75.58 Z M336.695,89.11 C336.695,89.8700038 336.615001,90.6099964 336.455,91.33 C336.294999,92.0500036 336.035002,92.6899972 335.675,93.25 C335.314998,93.8100028 334.840003,94.2599983 334.25,94.6 C333.659997,94.9400017 332.925004,95.11 332.045,95.11 C331.164996,95.11 330.415003,94.9450017 329.795,94.615 C329.174997,94.2849984 328.670002,93.8500027 328.28,93.31 C327.889998,92.7699973 327.605001,92.1450036 327.425,91.435 C327.244999,90.7249965 327.155,89.9900038 327.155,89.23 C327.155,88.5099964 327.239999,87.8000035 327.41,87.1 C327.580001,86.3999965 327.854998,85.7750028 328.235,85.225 C328.615002,84.6749973 329.104997,84.2300017 329.705,83.89 C330.305003,83.5499983 331.034996,83.38 331.895,83.38 C332.715004,83.38 333.429997,83.5399984 334.04,83.86 C334.650003,84.1800016 335.149998,84.6099973 335.54,85.15 C335.930002,85.6900027 336.219999,86.3049966 336.41,86.995 C336.600001,87.6850035 336.695,88.3899964 336.695,89.11 L336.695,89.11 Z M357.135,96.94 C356.694998,97.2000013 356.085004,97.33 355.305,97.33 C354.644997,97.33 354.120002,97.1450019 353.73,96.775 C353.339998,96.4049982 353.145,95.8000042 353.145,94.96 C352.444996,95.8000042 351.630005,96.4049982 350.7,96.775 C349.769995,97.1450019 348.765005,97.33 347.685,97.33 C346.984996,97.33 346.320003,97.2500008 345.69,97.09 C345.059997,96.9299992 344.515002,96.6800017 344.055,96.34 C343.594998,95.9999983 343.230001,95.5550028 342.96,95.005 C342.689999,94.4549973 342.555,93.7900039 342.555,93.01 C342.555,92.1299956 342.704998,91.4100028 343.005,90.85 C343.305001,90.2899972 343.699998,89.8350018 344.19,89.485 C344.680002,89.1349983 345.239997,88.8700009 345.87,88.69 C346.500003,88.5099991 347.144997,88.3600006 347.805,88.24 C348.505003,88.0999993 349.169997,87.9950004 349.8,87.925 C350.430003,87.8549997 350.984998,87.7550007 351.465,87.625 C351.945002,87.4949994 352.324999,87.3050013 352.605,87.055 C352.885001,86.8049988 353.025,86.4400024 353.025,85.96 C353.025,85.3999972 352.920001,84.9500017 352.71,84.61 C352.499999,84.2699983 352.230002,84.0100009 351.9,83.83 C351.569998,83.6499991 351.200002,83.5300003 350.79,83.47 C350.379998,83.4099997 349.975002,83.38 349.575,83.38 C348.494995,83.38 347.595004,83.584998 346.875,83.995 C346.154996,84.4050021 345.765,85.1799943 345.705,86.32 L343.155,86.32 C343.195,85.3599952 343.394998,84.5500033 343.755,83.89 C344.115002,83.2299967 344.594997,82.6950021 345.195,82.285 C345.795003,81.874998 346.479996,81.5800009 347.25,81.4 C348.020004,81.2199991 348.844996,81.13 349.725,81.13 C350.425003,81.13 351.119997,81.1799995 351.81,81.28 C352.500003,81.3800005 353.124997,81.5849985 353.685,81.895 C354.245003,82.2050016 354.694998,82.6399972 355.035,83.2 C355.375002,83.7600028 355.545,84.4899955 355.545,85.39 L355.545,93.37 C355.545,93.970003 355.58,94.4099986 355.65,94.69 C355.72,94.9700014 355.954998,95.11 356.355,95.11 C356.575001,95.11 356.834998,95.0600005 357.135,94.96 L357.135,96.94 Z M352.995,88.99 C352.674998,89.2300012 352.255003,89.4049995 351.735,89.515 C351.214997,89.6250006 350.670003,89.7149997 350.1,89.785 C349.529997,89.8550004 348.955003,89.9349996 348.375,90.025 C347.794997,90.1150005 347.275002,90.259999 346.815,90.46 C346.354998,90.660001 345.980001,90.9449982 345.69,91.315 C345.399999,91.6850019 345.255,92.1899968 345.255,92.83 C345.255,93.2500021 345.339999,93.6049986 345.51,93.895 C345.680001,94.1850015 345.899999,94.4199991 346.17,94.6 C346.440001,94.7800009 346.754998,94.9099996 347.115,94.99 C347.475002,95.0700004 347.854998,95.11 348.255,95.11 C349.095004,95.11 349.814997,94.9950012 350.415,94.765 C351.015003,94.5349989 351.504998,94.2450018 351.885,93.895 C352.265002,93.5449983 352.544999,93.1650021 352.725,92.755 C352.905001,92.344998 352.995,91.9600018 352.995,91.6 L352.995,88.99 Z M362.365,89.26 C362.365,88.3199953 362.489999,87.4850037 362.74,86.755 C362.990001,86.0249964 363.334998,85.4100025 363.775,84.91 C364.215002,84.4099975 364.729997,84.0300013 365.32,83.77 C365.910003,83.5099987 366.534997,83.38 367.195,83.38 C367.855003,83.38 368.479997,83.5099987 369.07,83.77 C369.660003,84.0300013 370.174998,84.4099975 370.615,84.91 C371.055002,85.4100025 371.399999,86.0249964 371.65,86.755 C371.900001,87.4850037 372.025,88.3199953 372.025,89.26 C372.025,90.2000047 371.900001,91.0349964 371.65,91.765 C371.399999,92.4950037 371.055002,93.1049976 370.615,93.595 C370.174998,94.0850025 369.660003,94.4599987 369.07,94.72 C368.479997,94.9800013 367.855003,95.11 367.195,95.11 C366.534997,95.11 365.910003,94.9800013 365.32,94.72 C364.729997,94.4599987 364.215002,94.0850025 363.775,93.595 C363.334998,93.1049976 362.990001,92.4950037 362.74,91.765 C362.489999,91.0349964 362.365,90.2000047 362.365,89.26 L362.365,89.26 Z M359.665,89.26 C359.665,90.4000057 359.824998,91.4599951 360.145,92.44 C360.465002,93.4200049 360.944997,94.2749964 361.585,95.005 C362.225003,95.7350037 363.014995,96.304998 363.955,96.715 C364.895005,97.1250021 365.974994,97.33 367.195,97.33 C368.435006,97.33 369.519995,97.1250021 370.45,96.715 C371.380005,96.304998 372.164997,95.7350037 372.805,95.005 C373.445003,94.2749964 373.924998,93.4200049 374.245,92.44 C374.565002,91.4599951 374.725,90.4000057 374.725,89.26 C374.725,88.1199943 374.565002,87.055005 374.245,86.065 C373.924998,85.0749951 373.445003,84.2150037 372.805,83.485 C372.164997,82.7549964 371.380005,82.1800021 370.45,81.76 C369.519995,81.3399979 368.435006,81.13 367.195,81.13 C365.974994,81.13 364.895005,81.3399979 363.955,81.76 C363.014995,82.1800021 362.225003,82.7549964 361.585,83.485 C360.944997,84.2150037 360.465002,85.0749951 360.145,86.065 C359.824998,87.055005 359.665,88.1199943 359.665,89.26 L359.665,89.26 Z M379.295,93.67 L379.295,97 L382.625,97 L382.625,93.67 L379.295,93.67 Z" id="fattybao.menu" fill="#FF7070"></path>
                            <g id="Group-25" transform="translate(388.000000, 81.000000)" fill="#444750">
                                <path d="M74.285,16 L74.285,0.49 L71.735,0.49 L71.735,9.25 C71.735,9.9500035 71.640001,10.5949971 71.45,11.185 C71.259999,11.775003 70.9750019,12.2899978 70.595,12.73 C70.2149981,13.1700022 69.7400028,13.5099988 69.17,13.75 C68.5999971,13.9900012 67.9250039,14.11 67.145,14.11 C66.1649951,14.11 65.3950028,13.8300028 64.835,13.27 C64.2749972,12.7099972 63.995,11.9500048 63.995,10.99 L63.995,0.49 L61.445,0.49 L61.445,10.69 C61.445,11.5300042 61.5299991,12.2949966 61.7,12.985 C61.8700008,13.6750035 62.1649979,14.2699975 62.585,14.77 C63.0050021,15.2700025 63.5549966,15.6549987 64.235,15.925 C64.9150034,16.1950014 65.7649949,16.33 66.785,16.33 C67.9250057,16.33 68.9149958,16.1050023 69.755,15.655 C70.5950042,15.2049978 71.2849973,14.5000048 71.825,13.54 L71.885,13.54 L71.885,16 L74.285,16 Z M43.765,0.49 L43.765,16 L46.315,16 L46.315,7.24 C46.315,6.5399965 46.409999,5.89500295 46.6,5.305 C46.7900009,4.71499705 47.0749981,4.2000022 47.455,3.76 C47.8350019,3.3199978 48.3099971,2.9800012 48.88,2.74 C49.4500028,2.4999988 50.1249961,2.38 50.905,2.38 C51.8850049,2.38 52.6549972,2.6599972 53.215,3.22 C53.7750028,3.7800028 54.055,4.5399952 54.055,5.5 L54.055,16 L56.605,16 L56.605,5.8 C56.605,4.9599958 56.5200008,4.19500345 56.35,3.505 C56.1799991,2.81499655 55.8850021,2.2200025 55.465,1.72 C55.0449979,1.2199975 54.4950034,0.8300014 53.815,0.55 C53.1349966,0.2699986 52.2850051,0.13 51.265,0.13 C48.9649885,0.13 47.2850053,1.0699906 46.225,2.95 L46.165,2.95 L46.165,0.49 L43.765,0.49 Z M39.885,11.08 L37.365,11.08 C37.1449989,12.1000051 36.6900035,12.8599975 36,13.36 C35.3099965,13.8600025 34.4250054,14.11 33.345,14.11 C32.5049958,14.11 31.7750031,13.9700014 31.155,13.69 C30.5349969,13.4099986 30.025002,13.0350024 29.625,12.565 C29.224998,12.0949977 28.9350009,11.5550031 28.755,10.945 C28.5749991,10.334997 28.4949999,9.6900034 28.515,9.01 L40.125,9.01 C40.1650002,8.0699953 40.0800011,7.0800052 39.87,6.04 C39.659999,4.9999948 39.2800028,4.0400044 38.73,3.16 C38.1799973,2.2799956 37.4500046,1.55500285 36.54,0.985 C35.6299955,0.41499715 34.4850069,0.13 33.105,0.13 C32.0449947,0.13 31.0700045,0.329998 30.18,0.73 C29.2899956,1.130002 28.5200033,1.6899964 27.87,2.41 C27.2199968,3.1300036 26.7150018,3.9799951 26.355,4.96 C25.9949982,5.9400049 25.815,7.0199941 25.815,8.2 C25.8550002,9.3800059 26.0299985,10.469995 26.34,11.47 C26.6500016,12.470005 27.1149969,13.3299964 27.735,14.05 C28.3550031,14.7700036 29.1199955,15.329998 30.03,15.73 C30.9400046,16.130002 32.0149938,16.33 33.255,16.33 C35.0150088,16.33 36.4749942,15.8900044 37.635,15.01 C38.7950058,14.1299956 39.5449983,12.8200087 39.885,11.08 Z M37.425,6.76 L28.515,6.76 C28.5550002,6.159997 28.6849989,5.59500265 28.905,5.065 C29.1250011,4.53499735 29.4249981,4.070002 29.805,3.67 C30.1850019,3.269998 30.6399973,2.95500115 31.17,2.725 C31.7000026,2.49499885 32.2949967,2.38 32.955,2.38 C33.5950032,2.38 34.1799973,2.49499885 34.71,2.725 C35.2400026,2.95500115 35.699998,3.26499805 36.09,3.655 C36.4800019,4.04500195 36.7899988,4.5099973 37.02,5.05 C37.2500011,5.5900027 37.3849998,6.159997 37.425,6.76 Z M0.065,0.49 L0.065,16 L2.615,16 L2.615,6.34 C2.615,6.0399985 2.68999925,5.66500225 2.84,5.215 C2.99000075,4.76499775 3.22999835,4.3300021 3.56,3.91 C3.89000165,3.4899979 4.31999735,3.1300015 4.85,2.83 C5.38000265,2.5299985 6.0149963,2.38 6.755,2.38 C7.3350029,2.38 7.80999815,2.46499915 8.18,2.635 C8.55000185,2.80500085 8.8449989,3.04499845 9.065,3.355 C9.2850011,3.66500155 9.43999955,4.0299979 9.53,4.45 C9.62000045,4.8700021 9.665,5.3299975 9.665,5.83 L9.665,16 L12.215,16 L12.215,6.34 C12.215,5.139994 12.5749964,4.1800036 13.295,3.46 C14.0150036,2.7399964 15.0049937,2.38 16.265,2.38 C16.8850031,2.38 17.3899981,2.4699991 17.78,2.65 C18.170002,2.8300009 18.4749989,3.07499845 18.695,3.385 C18.9150011,3.69500155 19.0649996,4.0599979 19.145,4.48 C19.2250004,4.9000021 19.265,5.3499976 19.265,5.83 L19.265,16 L21.815,16 L21.815,4.63 C21.815,3.829996 21.6900013,3.14500285 21.44,2.575 C21.1899988,2.00499715 20.8400023,1.5400018 20.39,1.18 C19.9399978,0.8199982 19.4000032,0.55500085 18.77,0.385 C18.1399969,0.21499915 17.4350039,0.13 16.655,0.13 C15.6349949,0.13 14.7000043,0.3599977 13.85,0.82 C12.9999958,1.2800023 12.3150026,1.9299958 11.795,2.77 C11.4749984,1.8099952 10.9250039,1.130002 10.145,0.73 C9.3649961,0.329998 8.4950048,0.13 7.535,0.13 C5.3549891,0.13 3.6850058,1.0099912 2.525,2.77 L2.465,2.77 L2.465,0.49 L0.065,0.49 Z" id="Combined-Shape"></path>
                            </g>
                        </g>
                        <path d="M665,75.5394174 L665,71 L674,77 L665,83 L665,78.5520039 C660.223335,79.0517005 656.5,83.0910345 656.5,88 C656.5,93.2467051 660.753295,97.5 666,97.5 C671.246705,97.5 675.5,93.2467051 675.5,88 L678.5,88 C678.5,94.9035594 672.903559,100.5 666,100.5 C659.096441,100.5 653.5,94.9035594 653.5,88 C653.5,81.4330472 658.563998,76.0488546 665,75.5394174 Z" id="Refresh" stroke="none" fill="#CDD7DB"></path>
                        <path d="M73.7246914,95.1691358 C75.0209877,92.9469136 75.7,90.4160494 75.7,87.7 C75.7,84.9839506 74.9592593,82.4530864 73.7246914,80.2308642 C73.7246914,80.1691358 73.662963,80.1691358 73.662963,80.1691358 C71.0703704,75.7246914 66.2555556,72.7 60.7,72.7 C55.2061728,72.7 50.3296296,75.7246914 47.737037,80.1691358 L47.6753086,80.2308642 C46.3790123,82.4530864 45.7,84.9839506 45.7,87.7 C45.7,90.4160494 46.4407407,92.9469136 47.6753086,95.1691358 C47.6753086,95.2308642 47.737037,95.2308642 47.737037,95.2308642 C50.3296296,99.6753086 55.1444444,102.7 60.7,102.7 C66.1938272,102.7 71.0703704,99.6753086 73.662963,95.2308642 C73.662963,95.2308642 73.662963,95.1691358 73.7246914,95.1691358 L73.7246914,95.1691358 Z M46.7493827,88.1938272 L51.8728395,88.1938272 C51.9345679,90.4160494 52.2432099,92.5148148 52.7987654,94.4283951 L48.4777778,94.4283951 C47.4283951,92.5765432 46.8111111,90.4777778 46.7493827,88.1938272 L46.7493827,88.1938272 Z M48.4777778,80.9716049 L52.7987654,80.9716049 C52.2432099,82.8851852 51.9345679,84.9839506 51.8728395,87.2061728 L46.7493827,87.2061728 C46.8111111,84.9222222 47.4283951,82.8234568 48.4777778,80.9716049 L48.4777778,80.9716049 Z M74.6506173,87.2061728 L69.5271605,87.2061728 C69.4654321,84.9839506 69.1567901,82.8851852 68.6012346,80.9716049 L72.9222222,80.9716049 C73.9716049,82.8234568 74.5888889,84.9222222 74.6506173,87.2061728 L74.6506173,87.2061728 Z M68.4777778,87.2061728 L61.1938272,87.2061728 L61.1938272,80.9716049 L67.4901235,80.9716049 C68.1074074,82.8234568 68.4160494,84.9839506 68.4777778,87.2061728 L68.4777778,87.2061728 Z M61.1938272,79.9222222 L61.1938272,73.8111111 C63.045679,74.0580247 64.7740741,75.4160494 66.0703704,77.7617284 C66.4407407,78.4407407 66.8111111,79.1814815 67.1197531,79.9222222 L61.1938272,79.9222222 L61.1938272,79.9222222 Z M60.2061728,73.8111111 L60.2061728,79.9222222 L54.2802469,79.9222222 C54.5888889,79.1197531 54.8975309,78.4407407 55.3296296,77.7617284 C56.6259259,75.354321 58.354321,73.9962963 60.2061728,73.8111111 L60.2061728,73.8111111 Z M60.2061728,80.9716049 L60.2061728,87.2061728 L52.9222222,87.2061728 C52.9839506,84.9839506 53.2925926,82.8851852 53.9098765,80.9716049 L60.2061728,80.9716049 L60.2061728,80.9716049 Z M52.9222222,88.1938272 L60.2061728,88.1938272 L60.2061728,94.4283951 L53.9098765,94.4283951 C53.2925926,92.5765432 52.9839506,90.4160494 52.9222222,88.1938272 L52.9222222,88.1938272 Z M60.2061728,95.4777778 L60.2061728,101.588889 C58.354321,101.341975 56.6259259,99.9839506 55.3296296,97.6382716 C54.9592593,96.9592593 54.5888889,96.2185185 54.2802469,95.4777778 L60.2061728,95.4777778 L60.2061728,95.4777778 Z M61.1938272,101.588889 L61.1938272,95.4777778 L67.1197531,95.4777778 C66.8111111,96.2802469 66.5024691,96.9592593 66.0703704,97.6382716 C64.7740741,100.045679 63.045679,101.403704 61.1938272,101.588889 L61.1938272,101.588889 Z M61.1938272,94.4283951 L61.1938272,88.1938272 L68.4777778,88.1938272 C68.4160494,90.4160494 68.1074074,92.5148148 67.4901235,94.4283951 L61.1938272,94.4283951 L61.1938272,94.4283951 Z M69.5271605,88.1938272 L74.6506173,88.1938272 C74.5888889,90.4777778 73.9716049,92.5765432 72.9222222,94.4283951 L68.6012346,94.4283951 C69.1567901,92.5148148 69.4654321,90.4160494 69.5271605,88.1938272 L69.5271605,88.1938272 Z M72.3049383,79.9222222 L68.2925926,79.9222222 C67.9222222,78.9345679 67.5518519,78.0703704 67.0580247,77.2061728 C66.3790123,76.0333333 65.6382716,75.045679 64.7740741,74.3666667 C67.8604938,75.2925926 70.5148148,77.2679012 72.3049383,79.9222222 L72.3049383,79.9222222 Z M56.6876543,74.3049383 C55.8234568,75.045679 55.082716,75.9716049 54.4037037,77.1444444 C53.9098765,77.9469136 53.5395062,78.8728395 53.1691358,79.8604938 L49.1567901,79.8604938 C50.8851852,77.2679012 53.5395062,75.2925926 56.6876543,74.3049383 L56.6876543,74.3049383 Z M49.0950617,95.4777778 L53.1074074,95.4777778 C53.4777778,96.4654321 53.8481481,97.3296296 54.3419753,98.1938272 C55.0209877,99.3666667 55.7617284,100.354321 56.6259259,101.033333 C53.5395062,100.107407 50.8851852,98.1320988 49.0950617,95.4777778 L49.0950617,95.4777778 Z M64.7123457,101.095062 C65.5765432,100.354321 66.317284,99.4283951 66.9962963,98.2555556 C67.4901235,97.4530864 67.8604938,96.5271605 68.2308642,95.5395062 L72.2432099,95.5395062 C70.5148148,98.1320988 67.8604938,100.107407 64.7123457,101.095062 L64.7123457,101.095062 Z" id="Shape" stroke="#CDD7DB" stroke-width="1" fill="#CDD7DB"></path>
                    </g>
                </g>
            </g>
        </g>
    </g>
</svg>