<?xml version="1.0" encoding="UTF-8" standalone="no"?>
<svg width="75px" height="100px" viewBox="0 0 75 100" version="1.1" xmlns="http://www.w3.org/2000/svg" xmlns:xlink="http://www.w3.org/1999/xlink">
    <!-- Generator: Sketch 40.1 (33804) - http://www.bohemiancoding.com/sketch -->
    <title>noun_267874_cc</title>
    <desc>Created with Sketch.</desc>
    <defs></defs>
    <g id="final" stroke="none" stroke-width="1" fill="none" fill-rule="evenodd">
        <g id="Artboard-Copy-8" transform="translate(-912.000000, -4219.000000)">
            <g id="4_savings" transform="translate(239.000000, 3893.000000)">
                <g id="Group-18" transform="translate(0.000000, 326.000000)">
                    <g id="dessert" transform="translate(481.000000, 0.000000)">
                        <g id="Group-17">
                            <g id="noun_267874_cc" transform="translate(192.000000, 0.000000)">
                                <g id="Group">
                                    <g id="Shape">
                                        <path d="M35.546875,27.03125 C35.234375,27.03125 34.84375,26.953125 34.609375,26.71875 C34.375,26.5625 34.21875,26.328125 34.140625,26.09375 C31.328125,23.828125 27.890625,22.578125 24.21875,22.578125 C22.109375,22.578125 20.15625,22.96875 18.203125,23.75 C17.734375,23.90625 17.265625,23.90625 16.875,23.671875 C16.484375,23.4375 16.171875,23.046875 16.09375,22.578125 C15.9375,21.5625 15.859375,20.546875 15.859375,19.609375 C15.859375,9.0625 24.453125,0.46875 35,0.46875 C45.234375,0.46875 53.59375,8.4375 54.140625,18.671875 C54.140625,19.140625 53.984375,19.609375 53.671875,19.921875 C53.359375,20.234375 52.890625,20.390625 52.421875,20.3125 C51.640625,20.234375 50.859375,20.15625 50.15625,20.15625 C45,20.15625 40.15625,22.5 36.875,26.5625 L36.875,26.5625 L36.875,26.5625 C36.484375,26.875 36.015625,27.03125 35.546875,27.03125 L35.546875,27.03125 Z M24.21875,19.375 C28.28125,19.375 32.265625,20.703125 35.546875,23.125 C39.375,19.140625 44.53125,16.875 50.078125,16.875 L50.78125,16.875 C49.53125,9.296875 42.890625,3.515625 34.921875,3.515625 C26.09375,3.515625 18.90625,10.703125 18.90625,19.53125 L18.90625,20.15625 C20.625,19.6875 22.421875,19.375 24.21875,19.375 L24.21875,19.375 Z" fill="#444750"></path>
                                        <path d="M53.28125,99.609375 L21.71875,99.609375 C20.859375,99.609375 20.15625,98.90625 20.15625,98.046875 L20.15625,91.796875 C20.15625,90.9375 20.859375,90.234375 21.71875,90.234375 L32.8125,90.234375 L32.8125,73.59375 L1.25,43.359375 C0.78125,42.890625 0.625,42.265625 0.859375,41.640625 C1.09375,41.015625 1.640625,40.625 2.34375,40.625 L72.65625,40.625 C73.28125,40.625 73.90625,41.015625 74.140625,41.640625 C74.375,42.265625 74.21875,42.890625 73.75,43.359375 L42.1875,73.59375 L42.1875,90.3125 L53.28125,90.3125 C54.140625,90.3125 54.84375,91.015625 54.84375,91.875 L54.84375,98.125 C54.84375,98.90625 54.140625,99.609375 53.28125,99.609375 L53.28125,99.609375 Z M23.28125,96.484375 L51.796875,96.484375 L51.796875,93.359375 L40.625,93.359375 C39.765625,93.359375 39.0625,92.65625 39.0625,91.796875 L39.0625,72.890625 C39.0625,72.5 39.21875,72.03125 39.53125,71.796875 L68.75,43.75 L6.25,43.75 L35.46875,71.71875 C35.78125,72.03125 35.9375,72.421875 35.9375,72.8125 L35.9375,91.71875 C35.9375,92.578125 35.234375,93.28125 34.375,93.28125 L23.28125,93.28125 L23.28125,96.484375 L23.28125,96.484375 Z" fill="#444750"></path>
                                        <path d="M32.1875,43.75 L7.421875,43.75 C6.71875,43.75 6.09375,43.28125 5.9375,42.578125 C5.625,41.171875 5.390625,39.6875 5.390625,38.203125 C5.390625,27.8125 13.828125,19.375 24.21875,19.375 C28.828125,19.375 33.28125,21.09375 36.71875,24.140625 C37.34375,24.6875 37.421875,25.625 36.875,26.328125 C34.375,29.375 33.046875,33.203125 33.046875,37.109375 C33.046875,38.671875 33.28125,40.234375 33.671875,41.796875 C33.828125,42.265625 33.75,42.8125 33.4375,43.203125 C33.125,43.59375 32.65625,43.75 32.1875,43.75 L32.1875,43.75 Z M8.75,40.625 L30.234375,40.625 C30,39.453125 29.921875,38.28125 29.921875,37.109375 C29.921875,32.96875 31.171875,28.984375 33.515625,25.546875 C30.859375,23.59375 27.578125,22.5 24.21875,22.5 C15.546875,22.5 8.515625,29.53125 8.515625,38.203125 C8.515625,38.984375 8.59375,39.84375 8.75,40.625 L8.75,40.625 Z" fill="#444750"></path>
                                        <path d="M67.96875,43.75 L32.1875,43.75 C31.484375,43.75 30.859375,43.28125 30.703125,42.578125 C30.15625,40.78125 29.921875,38.90625 29.921875,37.03125 C29.921875,25.9375 38.984375,16.875 50.078125,16.875 C61.171875,16.875 70.234375,25.9375 70.234375,37.03125 C70.234375,38.90625 70,40.78125 69.453125,42.578125 C69.296875,43.28125 68.671875,43.75 67.96875,43.75 L67.96875,43.75 Z M33.359375,40.625 L66.71875,40.625 C66.953125,39.453125 67.109375,38.28125 67.109375,37.109375 C67.109375,27.734375 59.453125,20.078125 50.078125,20.078125 C40.703125,20.078125 33.046875,27.734375 33.046875,37.109375 C33.046875,38.28125 33.125,39.453125 33.359375,40.625 L33.359375,40.625 Z" fill="#FF7070"></path>
                                        <path d="M62.34375,36.71875 C61.953125,36.71875 61.640625,36.40625 61.5625,36.015625 C61.015625,30.15625 55.9375,25.546875 50,25.546875 C49.53125,25.546875 49.21875,25.234375 49.21875,24.765625 C49.21875,24.296875 49.53125,23.984375 50,23.984375 C56.796875,23.984375 62.421875,29.140625 63.046875,35.859375 C63.203125,36.328125 62.890625,36.71875 62.34375,36.71875 L62.34375,36.71875 L62.34375,36.71875 Z" fill="#FF7070"></path>
                                        <path d="M38.75,67.03125 C38.515625,67.03125 38.359375,66.953125 38.203125,66.796875 C37.890625,66.484375 37.890625,66.015625 38.203125,65.703125 L57.421875,46.484375 C57.734375,46.171875 58.203125,46.171875 58.515625,46.484375 C58.828125,46.796875 58.828125,47.265625 58.515625,47.578125 L39.296875,66.796875 C39.140625,66.953125 38.984375,67.03125 38.75,67.03125 L38.75,67.03125 Z" fill="#444750"></path>
                                    </g>
                                </g>
                            </g>
                        </g>
                    </g>
                </g>
            </g>
        </g>
    </g>
</svg>