<?xml version="1.0" encoding="UTF-8" standalone="no"?>
<svg width="95px" height="100px" viewBox="0 0 95 100" version="1.1" xmlns="http://www.w3.org/2000/svg" xmlns:xlink="http://www.w3.org/1999/xlink">
    <!-- Generator: Sketch 40.1 (33804) - http://www.bohemiancoding.com/sketch -->
    <title>noun_599670_cc</title>
    <desc>Created with Sketch.</desc>
    <defs></defs>
    <g id="final" stroke="none" stroke-width="1" fill="none" fill-rule="evenodd">
        <g id="Artboard-Copy-8" transform="translate(-902.000000, -3893.000000)">
            <g id="4_savings" transform="translate(239.000000, 3893.000000)">
                <g id="Group-21">
                    <g id="Group-19" transform="translate(480.000000, 0.000000)">
                        <g id="noun_599670_cc" transform="translate(183.000000, 0.000000)">
                            <g id="Group">
                                <g id="Shape">
                                    <path d="M20.4960396,89.5831683 L19.2683168,89.5831683 C15.7237624,89.5831683 13.2485149,86.8049505 13.2485149,82.8287129 L13.2485149,22.8930693 C13.2485149,18.6762376 15.8920792,15.3722772 19.2683168,15.3722772 L20.4960396,15.3722772 C23.870297,15.3722772 26.5138614,18.6752475 26.5138614,22.8930693 L26.5138614,82.8277228 C26.5138614,86.8049505 24.039604,89.5831683 20.4960396,89.5831683 L20.4960396,89.5831683 Z M19.2683168,18.880198 C18.080198,18.880198 16.7564356,20.5277228 16.7564356,22.8930693 L16.7564356,82.8277228 C16.7564356,84.829703 17.7188119,86.0742574 19.2683168,86.0742574 L20.4960396,86.0742574 C22.0435644,86.0742574 23.0059406,84.829703 23.0059406,82.8277228 L23.0059406,22.8930693 C23.0059406,20.5277228 21.6831683,18.880198 20.4960396,18.880198 L19.2683168,18.880198 L19.2683168,18.880198 Z" fill="#444750"></path>
                                    <path d="M19.3564356,99.5049505 C10.149505,99.5049505 0.363366337,96.4059406 0.363366337,90.6623762 C0.363366337,86.3584158 6.06237624,82.9792079 14.8831683,82.050495 C15.8455446,81.9465347 16.709901,82.6485149 16.8108911,83.6108911 C16.9118812,84.5732673 16.2128713,85.4376238 15.250495,85.5386139 C8.22178218,86.2792079 3.87128713,88.7742574 3.87128713,90.6623762 C3.87128713,92.8366337 9.9039604,95.9960396 19.3564356,95.9960396 C28.8089109,95.9960396 34.8405941,92.8376238 34.8405941,90.6613861 C34.8405941,88.8128713 31.5336634,86.5 25.2148515,85.6564356 C24.2544554,85.5287129 23.580198,84.6465347 23.7079208,83.6861386 C23.8356436,82.7257426 24.7168317,82.0534653 25.6782178,82.180198 C33.4930693,83.2227723 38.3475248,86.4722772 38.3475248,90.6613861 C38.3485149,96.4059406 28.5633663,99.5049505 19.3564356,99.5049505 L19.3564356,99.5049505 Z" fill="#444750"></path>
                                    <path d="M20.4950495,18.3019802 C18.1366337,18.3019802 15.9188119,17.3831683 14.2514851,15.7158416 C12.5841584,14.0485149 11.6653465,11.8306931 11.6653465,9.47227723 C11.6653465,4.6029703 15.6267327,0.641584158 20.4960396,0.641584158 C25.3643564,0.641584158 29.3257426,4.6029703 29.3257426,9.47128713 C29.3257426,14.339604 25.3643564,18.3019802 20.4950495,18.3019802 L20.4950495,18.3019802 L20.4950495,18.3019802 L20.4950495,18.3019802 Z M20.4960396,4.14851485 C17.560396,4.14851485 15.1732673,6.53663366 15.1732673,9.47128713 C15.1732673,10.8930693 15.7277228,12.229703 16.7326733,13.2346535 C17.7386139,14.239604 19.0742574,14.7940594 20.4970297,14.7940594 L20.4970297,14.7940594 C23.4306931,14.7940594 25.8188119,12.4059406 25.8188119,9.47128713 C25.8178218,6.53663366 23.4306931,4.14851485 20.4960396,4.14851485 L20.4960396,4.14851485 Z" fill="#444750"></path>
                                    <path d="M75.849505,89.4356436 C74.1663366,89.4356436 72.6336634,88.7673267 71.5336634,87.5534653 C70.4188119,86.3247525 69.829703,84.639604 69.829703,82.6821782 L69.829703,22.7465347 C69.829703,18.529703 72.4742574,15.2257426 75.849505,15.2257426 L77.0772277,15.2257426 C80.4514851,15.2257426 83.0960396,18.5287129 83.0960396,22.7465347 L83.0960396,82.6821782 C83.0960396,86.6594059 80.619802,89.4356436 77.0772277,89.4356436 L75.849505,89.4356436 L75.849505,89.4356436 L75.849505,89.4356436 Z M75.849505,18.7346535 C74.6623762,18.7346535 73.3376238,20.3821782 73.3376238,22.7465347 L73.3376238,82.6821782 C73.3376238,83.7544554 73.6118812,84.6237624 74.1336634,85.1980198 C74.5663366,85.6752475 75.1594059,85.9277228 75.849505,85.9277228 L77.0772277,85.9277228 C78.6257426,85.9277228 79.5881188,84.6841584 79.5881188,82.6821782 L79.5881188,22.7465347 C79.5881188,20.3821782 78.2643564,18.7346535 77.0772277,18.7346535 L75.849505,18.7346535 L75.849505,18.7346535 Z" fill="#444750"></path>
                                    <path d="M75.9376238,99.3594059 C66.7306931,99.3594059 56.9445545,96.2594059 56.9445545,90.5158416 C56.9445545,86.2128713 62.6445545,82.8326733 71.4643564,81.9039604 C72.4336634,81.8039604 73.2920792,82.5019802 73.3920792,83.4653465 C73.4940594,84.4287129 72.7950495,85.2920792 71.8316832,85.3930693 C64.8029703,86.1326733 60.4534653,88.6287129 60.4534653,90.5158416 C60.4534653,92.6910891 66.4851485,95.8514851 75.9376238,95.8514851 C85.390099,95.8514851 91.4217822,92.6920792 91.4217822,90.5158416 C91.4217822,88.6663366 88.1158416,86.3534653 81.7970297,85.509901 C80.8366337,85.3831683 80.1623762,84.5 80.290099,83.539604 C80.4188119,82.5792079 81.3049505,81.9009901 82.260396,82.0336634 C90.0752475,83.0752475 94.929703,86.3257426 94.929703,90.5148515 C94.929703,96.2594059 85.1445545,99.3594059 75.9376238,99.3594059 L75.9376238,99.3594059 Z" fill="#444750"></path>
                                    <path d="M77.0782178,18.1554455 C72.2089109,18.1554455 68.2475248,14.1940594 68.2475248,9.32574257 C68.2475248,4.45643564 72.2089109,0.495049505 77.0782178,0.495049505 C81.9465347,0.495049505 85.9079208,4.45643564 85.9079208,9.32475248 C85.9079208,14.1940594 81.9465347,18.1554455 77.0782178,18.1554455 L77.0782178,18.1554455 Z M77.0782178,4.0019802 C74.1435644,4.0019802 71.7554455,6.39009901 71.7554455,9.32475248 C71.7554455,12.2594059 74.1435644,14.6465347 77.0782178,14.6465347 C80.0118812,14.6465347 82.4,12.2584158 82.4,9.32376238 C82.4,6.39009901 80.0118812,4.0019802 77.0782178,4.0019802 L77.0782178,4.0019802 Z" fill="#444750"></path>
                                    <path d="M48.2039604,27.3772277 C39.9465347,27.3772277 29.9920792,25.1782178 19.5049505,17.9940594 C18.7049505,17.4465347 18.5009901,16.3544554 19.049505,15.5564356 C19.5970297,14.7564356 20.6881188,14.5524752 21.4871287,15.1 C49.4772277,34.2742574 73.5871287,15.9306931 73.8277228,15.7435644 C74.5920792,15.1475248 75.6940594,15.2841584 76.2891089,16.0475248 C76.8841584,16.8108911 76.749505,17.9138614 75.9851485,18.5089109 C75.7168317,18.7178218 69.3069307,23.6564356 59.1217822,26.0871287 C55.9990099,26.8336634 52.3108911,27.3772277 48.2039604,27.3772277 L48.2039604,27.3772277 Z" fill="#FF7070"></path>
                                </g>
                            </g>
                        </g>
                    </g>
                </g>
            </g>
        </g>
    </g>
</svg>