<?xml version="1.0" encoding="UTF-8" standalone="no"?>
<svg width="165px" height="169px" viewBox="0 0 165 169" version="1.1" xmlns="http://www.w3.org/2000/svg" xmlns:xlink="http://www.w3.org/1999/xlink">
    <!-- Generator: Sketch 40.1 (33804) - http://www.bohemiancoding.com/sketch -->
    <title>fattybaoheader</title>
    <desc>Created with Sketch.</desc>
    <defs></defs>
    <g id="final" stroke="none" stroke-width="1" fill="none" fill-rule="evenodd">
        <g id="Artboard-Copy-8" transform="translate(-419.000000, -2559.000000)">
            <g id="action" transform="translate(0.000000, 2459.000000)">
                <g id="Group-7" transform="translate(419.000000, 100.000000)">
                    <g id="fattybaoheader">
                        <g id="Group">
                            <g id="Page-1">
                                <g id="The-Fatty-Bao---Logo">
                                    <g id="Group-79" transform="translate(0.000000, 0.187897)">
                                        <g id="Group">
                                            <polygon id="Fill-23" fill="#1A1918" points="36.7010976 145.176784 44.7760366 145.176784 44.7760366 144.554039 36.7010976 144.554039"></polygon>
                                            <path d="M43.4561037,139.104348 C38.7542744,141.556407 36.2095183,146.879267 37.8467744,150.024533 C39.7563476,153.690542 45.3019573,154.132771 50.005128,151.681384 C54.7062866,149.229325 57.000189,144.705028 55.0906159,141.037676 C53.4547012,137.893082 48.1579329,136.656316 43.4561037,139.104348" id="Fill-25" fill="#1A1918"></path>
                                            <path d="M44.0026829,140.154224 C39.82,142.33249 37.527439,146.860813 38.8910366,149.479295 C40.5296341,152.62389 45.5520732,153.337228 49.7320732,151.158291 C53.9114024,148.980025 55.6814634,144.726166 54.0442073,141.58023 C52.6819512,138.96309 48.1826829,137.975958 44.0026829,140.154224" id="Fill-26" fill="#FFFFFF"></path>
                                            <polygon id="Fill-27" fill="#1A1918" points="44.820439 141.725716 40.0937927 142.857126 39.3224512 143.924785 44.5715976 142.522937"></polygon>
                                            <polygon id="Fill-28" fill="#1A1918" points="45.9113841 143.821441 46.4587012 144.870981 38.6198598 148.956404 38.346872 148.430963"></polygon>
                                            <polygon id="Fill-29" fill="#1A1918" points="47.5243598 145.645923 48.0689939 146.694792 39.7110061 151.051324 39.1650305 150.003797"></polygon>
                                            <polygon id="Fill-30" fill="#1A1918" points="48.3667317 148.538534 49.160878 148.791524 42.643378 152.85346 41.5749024 152.079726"></polygon>
                                            <path d="M39.545,126.487921 L65.5982317,168.870826 C65.5982317,168.870826 73.4115854,163.466097 80.8835366,153.575321 C88.605,142.887994 83.015122,139.808493 83.015122,139.808493 L81.0760366,119.498144 C74.0118902,122.513895 38.7253659,124.917637 39.545,126.487921" id="Fill-31" fill="#1A1918"></path>
                                            <path d="M46.1553963,127.708112 L68.1406402,163.54951 C68.1406402,163.54951 73.0919817,160.301572 79.2680793,151.752248 C83.3816768,145.612035 82.7880793,141.92388 81.9469817,139.030934 C80.7866159,132.973261 80.1708841,127.965129 79.0098476,121.90947 C73.2623476,124.904417 45.3384451,126.133802 46.1553963,127.708112" id="Fill-32" fill="#D1DC48"></path>
                                            <path d="M44.1559451,116.515007 L25.5176524,165.737372 C25.5176524,165.737372 16.1964939,161.376814 6.25490854,152.030269 C-3.6839939,143.306468 1.28612805,138.94591 1.28612805,138.94591 L0.0432621951,117.13641 C7.49911585,119.008001 44.7757012,114.646101 44.1559451,116.515007" id="Fill-33" fill="#1A1918"></path>
                                            <path d="M37.3192439,118.382706 L21.1666829,160.754203 C21.1666829,160.754203 15.5761341,158.259867 7.49918293,150.160154 C2.52906098,145.176851 1.90729268,140.813609 2.52906098,137.69787 C2.52906098,131.469748 2.52906098,125.862358 1.90729268,119.630209 C8.74070732,121.499787 37.9423537,117.136544 37.3192439,118.382706" id="Fill-34" fill="#D1DC48"></path>
                                            <path d="M76.4622744,90.2785139 C76.4622744,99.6270723 56.5811159,113.95625 43.533372,113.334175 C30.4849573,113.334175 10.6037988,99.6270723 10.6037988,90.2785139 C10.6037988,80.9333108 24.8944085,73.455672 43.533372,73.455672 C61.5505671,73.455672 76.4622744,80.9333108 76.4622744,90.2785139 L76.4622744,90.2785139 Z" id="Fill-35" fill="#FFFFFF"></path>
                                            <path d="M43.533372,72.8331282 L43.533372,72.8331282 L43.533372,74.7027056 L43.533372,72.8331282 L43.533372,72.8331282 Z M19.925628,77.8177733 C25.5175183,74.7027056 34.2135549,72.8331282 43.533372,72.8331282 L43.533372,74.7027056 C34.2135549,74.7027056 26.1386159,76.5722831 20.5460549,79.6880219 L19.925628,77.8177733 L19.925628,77.8177733 Z M9.36160366,90.2787152 C9.36160366,85.2947411 13.090872,80.932841 19.925628,77.8177733 L20.5460549,79.6880219 C14.9528232,82.1796734 11.2255671,86.5415735 11.2255671,90.2787152 L9.36160366,90.2787152 L9.36160366,90.2787152 Z M9.36160366,90.2787152 L9.36160366,90.2787152 L11.2255671,90.2787152 L9.36160366,90.2787152 L9.36160366,90.2787152 Z M31.1087378,111.462786 C19.925628,106.479483 9.36160366,97.755683 9.36160366,90.2787152 L11.2255671,90.2787152 C11.2255671,97.13428 21.1671524,105.233993 31.7305061,109.594551 L31.1087378,111.462786 L31.1087378,111.462786 Z M37.3190427,113.334377 C35.4570915,112.708947 32.9720305,112.086873 31.1087378,111.462786 L31.7305061,109.594551 C33.5937988,110.841383 35.4570915,111.462786 37.9428232,112.086873 L37.3190427,113.334377 L37.3190427,113.334377 Z M43.533372,114.579196 C41.6714207,114.579196 39.1850183,113.95578 37.3190427,113.334377 L37.9428232,112.086873 C39.8054451,112.086873 41.6714207,112.708947 43.533372,112.708947 L43.533372,114.579196 L43.533372,114.579196 Z M43.533372,114.579196 L43.533372,114.579196 L43.533372,113.334377 L43.533372,114.579196 L43.533372,114.579196 Z M43.533372,114.579196 L43.533372,114.579196 L43.533372,112.708947 L43.533372,114.579196 L43.533372,114.579196 Z M43.533372,114.579196 L44.155811,114.579196 L44.155811,112.708947 L43.533372,112.708947 L43.533372,114.579196 L43.533372,114.579196 Z M65.2791646,106.479483 C59.0655061,110.841383 50.368128,114.579196 44.155811,114.579196 L44.155811,112.708947 C50.368128,112.708947 57.8239817,109.594551 64.6560549,104.610577 L65.2791646,106.479483 L65.2791646,106.479483 Z M77.0840427,90.9048156 C77.0840427,95.8874476 72.1139207,101.494838 65.2791646,106.479483 L64.6560549,104.610577 C70.8723963,100.249348 75.22075,95.2633604 75.22075,90.9048156 L77.0840427,90.9048156 L77.0840427,90.9048156 Z M75.2200793,90.9048156 L77.0840427,90.9048156 L77.0840427,90.2787152 L75.2200793,90.2787152 L75.2200793,90.9048156 L75.2200793,90.9048156 Z M77.0840427,90.2787152 L77.0840427,90.2787152 L75.22075,90.2787152 L77.0840427,90.2787152 L77.0840427,90.2787152 Z M67.1451402,77.8177733 C73.3554451,80.932841 77.0840427,85.2947411 77.0840427,90.2787152 L75.22075,90.2787152 C75.22075,86.5415735 72.1139207,82.1796734 66.520689,79.6880219 L67.1451402,77.8177733 L67.1451402,77.8177733 Z M43.533372,72.8331282 C52.853189,72.8331282 60.9301402,74.7027056 67.1451402,77.8177733 L66.520689,79.6880219 C60.308372,76.5722831 52.2320915,74.7027056 43.533372,74.7027056 L43.533372,72.8331282 L43.533372,72.8331282 Z M43.533372,72.8331282 L43.533372,72.8331282 L43.533372,74.7027056 L43.533372,72.8331282 L43.533372,72.8331282 Z" id="Fill-36" fill="#1D1C18"></path>
                                            <path d="M42.9134146,27.3477041 C65.2789634,27.3477041 83.2975,47.2869559 83.2975,72.2095107 C83.2975,80.3092235 81.4328659,87.7875334 77.7062805,94.6397429 L41.6712195,94.6397429 L8.11987805,94.6397429 C4.39195122,87.7875334 2.52932927,80.3092235 2.52932927,72.2095107 C2.52932927,47.2869559 20.5458537,27.3477041 42.9134146,27.3477041" id="Fill-37" fill="#1A1918"></path>
                                            <path d="M42.9134146,27.3477041 C65.2789634,27.3477041 83.2975,47.2869559 83.2975,72.2095107 C83.2975,80.3092235 81.4328659,87.7875334 77.7062805,94.6397429 L41.6712195,94.6397429 L8.11987805,94.6397429 C4.39195122,87.7875334 2.52932927,80.3092235 2.52932927,72.2095107 C2.52932927,47.2869559 20.5458537,27.3477041 42.9134146,27.3477041 L42.9134146,27.3477041 L42.9134146,27.3477041 Z" id="Stroke-38"></path>
                                            <path d="M42.9134146,13.0188624 C52.232561,13.0188624 60.3081707,19.2489978 60.3081707,27.3480397 C60.3081707,35.4504368 52.232561,42.3046594 42.9134146,42.3046594 C33.5935976,42.3046594 25.5173171,35.4504368 25.5173171,27.3480397 C25.5173171,19.2489978 33.5935976,13.0188624 42.9134146,13.0188624" id="Fill-39" fill="#1A1918"></path>
                                            <path d="M42.9134146,13.0188624 C52.232561,13.0188624 60.3081707,19.2489978 60.3081707,27.3480397 C60.3081707,35.4504368 52.232561,42.3046594 42.9134146,42.3046594 C33.5935976,42.3046594 25.5173171,35.4504368 25.5173171,27.3480397 C25.5173171,19.2489978 33.5935976,13.0188624 42.9134146,13.0188624 L42.9134146,13.0188624 L42.9134146,13.0188624 Z" id="Stroke-40"></path>
                                            <path d="M25.5683598,98.7593897 C25.5683598,98.7593897 31.9738476,102.599875 37.3470793,100.413556 C37.3470793,100.413556 31.9738476,106.206831 25.5683598,98.7593897" id="Fill-41" fill="#1A1918"></path>
                                            <path d="M48.0689939,101.062272 C48.0689939,101.062272 55.4027744,102.492304 59.7095427,98.6075285 C59.7095427,98.6075285 56.6282012,105.88452 48.0689939,101.062272" id="Fill-42" fill="#1A1918"></path>
                                            <path d="M51.95025,19.3775732 C46.5454939,22.962384 59.7079329,28.0476884 59.4959817,32.0700313 C59.2867134,35.980978 55.2468963,36.8110812 58.1612256,40.6743825 C61.0688476,44.5316443 67.5648841,46.0395196 67.8888476,51.4368676 C67.9096402,51.8213859 69.117628,51.5751063 69.0894573,51.1167712 C68.8406159,46.9461237 65.1468963,45.2765226 62.1547622,43.068059 C60.5470183,41.8843065 57.9050061,39.5691441 58.0988476,37.3808124 C58.2108598,36.1125061 59.712628,34.9918333 60.1720793,33.8188177 C61.4162866,30.6426834 59.660311,28.9167131 57.2986646,26.9135944 C55.8418354,25.6808543 49.5148232,21.8350006 52.6940915,19.723841 C53.3735427,19.2762429 52.3265305,19.1272673 51.95025,19.3775732" id="Fill-43" fill="#D1DC48"></path>
                                            <path d="M35.0119939,22.8219979 C36.9363232,34.9762647 49.0504085,33.2120439 58.3413841,35.1420169 C61.2885793,35.7553671 63.8004695,36.974686 65.9515061,39.0938983 C68.6082744,41.7049988 67.6746159,44.7912109 66.9019329,47.9646609 C65.1969329,54.954438 67.044128,60.8718587 73.066628,64.963992 C73.4335183,65.2109427 74.5288232,64.6915411 74.0123598,64.341918 C70.7304695,62.1119805 68.4312012,59.3149959 67.6115671,55.3711672 C66.8925427,51.901779 68.0119939,48.4545359 68.7658963,45.1059387 C69.8383963,40.3414018 66.1956524,36.7834334 61.9458963,35.2695186 C52.5408963,31.9148819 38.3052866,35.7090639 36.2126037,22.4998884 C36.1394939,22.037527 34.934189,22.3267545 35.0119939,22.8219979" id="Fill-44" fill="#D1DC48"></path>
                                            <path d="M43.1482378,19.8946262 C38.4363476,25.5664384 44.680189,27.4615162 48.4154939,30.95976 C51.2017134,33.5695184 52.5612866,36.2530935 50.1989695,39.5017024 C48.6656768,41.6128621 47.1967744,43.4025832 46.8312256,46.0915268 C46.7869573,46.4277287 47.9788476,46.2002388 48.0204329,45.8895373 C48.6388476,41.3296741 54.5714695,38.166961 51.9743963,33.4225559 C50.6248841,30.9557336 48.1042744,29.2874746 45.8432378,27.7554411 C42.5123841,25.5053718 41.4365305,23.2083281 44.2415305,19.8295332 C44.5098232,19.5054105 43.3440915,19.6590836 43.1482378,19.8946262" id="Fill-45" fill="#D1DC48"></path>
                                            <path d="M18.9212073,35.7804648 L61.3302317,17.5443673 C56.294378,5.82696163 42.7227927,0.412166002 31.0118171,5.44781185 C19.3008415,10.4834577 13.8873659,24.0644013 18.9212073,35.7804648 Z" id="Fill-46" fill="#DC3E2A"></path>
                                            <polygon id="Fill-47" fill="#DC3E2A" points="37.439439 3.18821341 24.9497439 8.55939003 23.596878 5.40808501 36.0838902 0.0389215697"></polygon>
                                            <polygon id="Fill-48" fill="#FFFFFF" points="57.9396829 16.7614398 51.4443171 19.5530558 51.2256585 19.6490176 49.4093171 15.4206588 55.5082805 12.8008345 56.884622 16.0044824 51.5516341 18.2968286 50.5777317 16.0252853 55.2272439 14.0261929 55.8013902 15.3629475 52.3357195 16.8520331 52.107 16.3453816 54.5799878 15.2596041 54.4183415 14.8952176 51.574439 16.1440632 52.1385244 17.3727769 56.3238902 15.5716477 55.4371829 13.504107 50.0538902 15.8179273 51.3430366 18.8215987 57.4077927 16.2131825 55.7135244 12.2760644 48.8861463 15.2126297 50.859439 19.8047039 43.8536463 22.8184413 43.6356585 22.9123899 41.8179756 18.6867154 47.9155976 16.0642068 49.291939 19.2698679 43.9629756 21.5622141 42.9877317 19.2899997 47.6379146 17.2902363 48.2107195 18.6243066 44.7463902 20.1154054 44.5156585 19.6087539 46.9866341 18.5243185 46.827 18.1585899 43.9851098 19.4074355 44.5445 20.6368202 48.7325488 18.8363621 47.8438293 16.7694925 42.4625488 19.0819706 43.7523659 22.0869842 49.8151098 19.4758838 48.1235244 15.5401078 41.2961463 18.4773442 43.2701098 23.0700894 36.2623049 26.0824847 36.0443171 26.1777754 34.2299878 21.9500877 40.3262683 19.3302634 41.701939 22.5332402 36.369622 24.8275996 35.3963902 22.5547141 40.0472439 20.5556218 40.619378 21.8917053 37.154378 23.3781066 36.9236463 22.8754815 39.3973049 21.790375 39.2363293 21.4246465 36.3930976 22.6721499 36.9551707 23.9001925 41.1425488 22.0970502 40.2545 20.0315227 34.8738902 22.3473561 36.1630366 25.3503565 42.224439 22.7432824 40.5321829 18.8061643 33.7054756 21.7393744 35.6801098 26.3348038 28.6723049 29.3451859 28.4543171 29.4411477 26.6386463 25.2127889 32.7349268 22.5916225 34.111939 25.7972835 28.7809634 28.0909719 27.804378 25.8207707 32.454561 23.8196651 33.0287073 25.1544066 29.564378 26.6455053 29.3343171 26.1381828 31.8066341 25.0524052 31.6476707 24.6886899 28.8024268 25.9375354 29.3651707 27.165578 33.5532195 25.3671331 32.6645 23.2989214 27.2825488 25.6120705 28.5730366 28.6164131 34.6330976 26.0079969 32.9421829 22.0688656 26.1127927 25.006773 28.0874268 29.5981761 20.8629756 32.703849 19.0473049 28.4788455 25.1429146 25.8563369 26.5212683 29.0640111 21.1889512 31.3550153 20.214378 29.0854851 24.8625488 27.0837085 25.4387073 28.4197921 21.9737073 29.9088776 21.7429756 29.4028972 24.214622 28.3184618 24.0556585 27.9520622 21.2117561 29.2029209 21.7738293 30.4289503 25.9612073 28.6271501 25.0731585 26.5622937 19.6912073 28.8754428 20.9803537 31.8791143 27.0430976 29.2720402 25.3501707 25.3329089 18.5241341 28.2701453 20.654378 33.2313033 28.244378 29.9652468 28.8292561 29.7135987 35.837061 26.7005324 36.4185854 26.4482132 43.4277317 23.4351469 44.0112683 23.1834988 51.0184024 20.1704325 51.6012683 19.9187844 58.0952927 17.1285105"></polygon>
                                            <path d="M98.9499634,109.700847 L97.4267317,105.949613 L97.4039268,105.949613 L95.858561,109.700847 L98.9499634,109.700847 L98.9499634,109.700847 Z M96.9652683,104.518239 L97.9686829,104.518239 L101.464537,112.689755 L100.172037,112.689755 L99.3537439,110.66986 L95.4661829,110.66986 L94.658622,112.689755 L93.3667927,112.689755 L96.9652683,104.518239 L96.9652683,104.518239 Z" id="Fill-49" fill="#FFFFFF"></path>
                                            <path d="M105.455524,108.592723 C105.33211,108.43905 105.180524,108.310206 104.999427,108.206192 C104.819,108.102177 104.598329,108.049834 104.336744,108.049834 C104.090585,108.049834 103.876622,108.102177 103.696195,108.206192 C103.515098,108.310206 103.42522,108.462537 103.42522,108.661842 C103.42522,108.823568 103.477537,108.954425 103.580829,109.054413 C103.684793,109.154402 103.807537,109.2356 103.950402,109.296667 C104.092598,109.359075 104.244183,109.404707 104.4065,109.434905 C104.567476,109.466445 104.706317,109.492617 104.821683,109.516104 C105.044366,109.569789 105.253634,109.635553 105.450159,109.712054 C105.646012,109.788555 105.815037,109.889885 105.957232,110.012018 C106.100098,110.135493 106.211439,110.28514 106.291927,110.4623 C106.372415,110.639461 106.413329,110.854871 106.413329,111.108533 C106.413329,111.41655 106.347598,111.680277 106.216805,111.899043 C106.086012,112.11848 105.916988,112.297654 105.709732,112.436564 C105.501134,112.574802 105.265707,112.67479 104.999427,112.736528 C104.735159,112.798266 104.467537,112.828463 104.197902,112.828463 C103.744488,112.828463 103.346073,112.758673 103.004671,112.621105 C102.661927,112.482196 102.356073,112.227863 102.08778,111.85878 L102.871195,111.211876 C103.04089,111.381655 103.229366,111.531973 103.436622,111.66283 C103.644549,111.794358 103.898085,111.85878 104.197902,111.85878 C104.328695,111.85878 104.4615,111.845358 104.596317,111.819187 C104.731134,111.791673 104.850524,111.749397 104.953817,111.691685 C105.05711,111.633974 105.142293,111.560828 105.208024,111.472248 C105.273085,111.383668 105.30528,111.281667 105.30528,111.166244 C105.30528,111.012571 105.257659,110.88574 105.161744,110.785752 C105.065159,110.685093 104.949793,110.606579 104.814976,110.548867 C104.680829,110.491156 104.538634,110.445524 104.38839,110.409958 C104.238817,110.375734 104.106012,110.346878 103.990646,110.323391 C103.767293,110.269706 103.556012,110.207968 103.356134,110.13952 C103.156256,110.069729 102.979854,109.977123 102.825585,109.862371 C102.671988,109.746949 102.548573,109.600657 102.456012,109.423497 C102.364122,109.247008 102.317841,109.0269 102.317841,108.765857 C102.317841,108.481327 102.376866,108.233034 102.496927,108.020979 C102.615646,107.809594 102.773939,107.634447 102.969793,107.496208 C103.165646,107.357299 103.388329,107.253955 103.638512,107.184165 C103.888695,107.115045 104.14022,107.080821 104.394427,107.080821 C104.764,107.080821 105.117476,107.150612 105.455524,107.28885 C105.793573,107.427089 106.063207,107.657263 106.263085,107.981386 L105.455524,108.592723 L105.455524,108.592723 Z" id="Fill-50" fill="#FFFFFF"></path>
                                            <path d="M108.039451,112.689352 L109.077744,112.689352 L109.077744,107.218859 L108.039451,107.218859 L108.039451,112.689352 L108.039451,112.689352 Z M107.797317,105.257346 C107.797317,105.049317 107.872439,104.870143 108.022012,104.720497 C108.172256,104.57085 108.350671,104.495691 108.559268,104.495691 C108.765854,104.495691 108.94561,104.57085 109.094512,104.720497 C109.245427,104.870143 109.319878,105.049317 109.319878,105.257346 C109.319878,105.464704 109.245427,105.643877 109.094512,105.793524 C108.94561,105.943842 108.765854,106.019001 108.559268,106.019001 C108.350671,106.019001 108.172256,105.943842 108.022012,105.793524 C107.872439,105.643877 107.797317,105.464704 107.797317,105.257346 L107.797317,105.257346 L107.797317,105.257346 Z" id="Fill-51" fill="#FFFFFF"></path>
                                            <path d="M113.96872,110.058657 C113.722561,110.058657 113.471037,110.072078 113.213476,110.098921 C112.955244,110.125763 112.721159,110.178106 112.509878,110.254607 C112.297927,110.331108 112.124878,110.439149 111.990732,110.577388 C111.855915,110.716297 111.788171,110.893458 111.788171,111.108197 C111.788171,111.424267 111.894146,111.651086 112.106098,111.789996 C112.317378,111.927563 112.60378,111.997354 112.965305,111.997354 C113.249695,111.997354 113.491829,111.949037 113.691707,111.853076 C113.892256,111.757114 114.053232,111.632296 114.176646,111.477952 C114.29939,111.324279 114.387927,111.153158 114.441585,110.96459 C114.495244,110.775351 114.522073,110.589467 114.522073,110.404925 L114.522073,110.058657 L113.96872,110.058657 L113.96872,110.058657 Z M111.038963,107.888444 C111.330732,107.619348 111.66878,107.417359 112.054451,107.282475 C112.43811,107.147592 112.82311,107.080486 113.207439,107.080486 C113.607195,107.080486 113.95128,107.130815 114.239695,107.230804 C114.52878,107.331463 114.764878,107.465675 114.949329,107.634783 C115.13378,107.804561 115.269939,107.998498 115.359146,108.217264 C115.447012,108.436701 115.491951,108.665533 115.491951,108.90376 L115.491951,111.696718 C115.491951,111.889984 115.495305,112.066473 115.503354,112.227528 C115.510732,112.389925 115.521463,112.543598 115.537561,112.689889 L114.615305,112.689889 C114.591829,112.412741 114.579756,112.136264 114.579756,111.859115 L114.557622,111.859115 C114.32622,112.212765 114.053232,112.46307 113.737988,112.609362 C113.423415,112.754982 113.057866,112.828128 112.642012,112.828128 C112.388476,112.828128 112.145671,112.793904 111.914939,112.724784 C111.684878,112.654994 111.482988,112.551651 111.309939,112.412741 C111.13689,112.274502 111.000061,112.103381 110.900122,111.898708 C110.800183,111.695376 110.750549,111.458491 110.750549,111.190067 C110.750549,110.835746 110.829024,110.539808 110.986646,110.30091 C111.144268,110.062683 111.359573,109.868075 111.633232,109.717758 C111.90622,109.568111 112.224817,109.46007 112.589695,109.394977 C112.955244,109.329884 113.34561,109.296331 113.760793,109.296331 L114.522073,109.296331 L114.522073,109.066157 C114.522073,108.927247 114.495244,108.788337 114.441585,108.650099 C114.387927,108.51186 114.307439,108.387043 114.200122,108.274975 C114.092134,108.163579 113.957317,108.07567 113.795671,108.009906 C113.634024,107.944813 113.442195,107.911931 113.218841,107.911931 C113.018963,107.911931 112.843902,107.931392 112.694329,107.969642 C112.544085,108.007893 112.407927,108.056209 112.284512,108.113921 C112.161768,108.170961 112.050427,108.238738 111.949817,108.315239 C111.849878,108.393082 111.753963,108.465557 111.662073,108.534676 L111.038963,107.888444 L111.038963,107.888444 Z" id="Fill-52" fill="#FFFFFF"></path>
                                            <path d="M117.290921,107.219127 L118.329213,107.219127 L118.329213,108.06198 L118.352689,108.06198 C118.482811,107.768727 118.710189,107.533184 119.032811,107.351997 C119.356104,107.171482 119.72903,107.080888 120.151591,107.080888 C120.413177,107.080888 120.664701,107.121152 120.907506,107.20168 C121.14964,107.282878 121.360921,107.407695 121.542018,107.576803 C121.721774,107.746581 121.866652,107.963334 121.97464,108.229075 C122.082628,108.494144 122.136287,108.808201 122.136287,109.169903 L122.136287,112.689621 L121.097994,112.689621 L121.097994,109.45846 C121.097994,109.204127 121.063116,108.986703 120.99403,108.805517 C120.924274,108.625672 120.832384,108.479381 120.717018,108.367984 C120.602323,108.256588 120.468848,108.17539 120.319274,108.125731 C120.16903,108.075402 120.014091,108.049901 119.851774,108.049901 C119.63647,108.049901 119.436591,108.084797 119.25214,108.154587 C119.067689,108.223706 118.905372,108.332418 118.767872,108.483407 C118.62903,108.632383 118.521713,108.823635 118.444579,109.05448 C118.366774,109.285326 118.329213,109.557777 118.329213,109.873847 L118.329213,112.689621 L117.290921,112.689621 L117.290921,107.219127 L117.290921,107.219127 Z" id="Fill-53" fill="#FFFFFF"></path>
                                            <path d="M101.360372,120.815304 L101.360372,124.843015 C101.160494,124.966491 100.933787,125.07386 100.68025,125.165796 C100.426043,125.258402 100.163116,125.337588 99.890128,125.402681 C99.6164695,125.468445 99.340128,125.516761 99.0590915,125.54763 C98.7780549,125.577828 98.515128,125.593262 98.2689695,125.593262 C97.5767744,125.593262 96.9597012,125.477839 96.41775,125.246994 C95.875128,125.016149 95.4183598,124.704777 95.0447622,124.312206 C94.6711646,123.919635 94.3874451,123.463984 94.1915915,122.944582 C93.9957378,122.42518 93.8971402,121.876923 93.8971402,121.300481 C93.8971402,120.691828 94.0024451,120.126795 94.2143963,119.603367 C94.4256768,119.079939 94.7181159,118.626301 95.090372,118.241112 C95.4639695,117.857265 95.9120183,117.555287 96.4345183,117.335179 C96.957689,117.115741 97.5311646,117.006358 98.1536037,117.006358 C98.9075061,117.006358 99.5225671,117.100978 99.9994573,117.289546 C100.476348,117.477444 100.875433,117.737816 101.199396,118.067978 L100.41464,118.910831 C100.076591,118.588051 99.7190915,118.362574 99.3414695,118.235743 C98.965189,118.108913 98.5687866,118.045162 98.1536037,118.045162 C97.6847622,118.045162 97.2615305,118.131729 96.8845793,118.304863 C96.5082988,118.478668 96.1843354,118.710855 95.9160427,119.003438 C95.6457378,119.295349 95.4391524,119.639604 95.2922622,120.036201 C95.1467134,120.432799 95.0736037,120.854225 95.0736037,121.300481 C95.0736037,121.761501 95.1547622,122.19098 95.3157378,122.586906 C95.4773841,122.982833 95.7007378,123.327087 95.985128,123.61967 C96.2695183,123.912253 96.6035427,124.141085 96.9885427,124.306166 C97.372872,124.471918 97.7920793,124.554459 98.2461646,124.554459 C98.637872,124.554459 99.0087866,124.518221 99.3595793,124.445076 C99.7090305,124.37193 100.006835,124.266573 100.253665,124.127664 L100.253665,121.854107 L98.4413476,121.854107 L98.4413476,120.815304 L101.360372,120.815304 L101.360372,120.815304 Z" id="Fill-54" fill="#FFFFFF"></path>
                                            <path d="M106.355512,122.75447 C106.109354,122.75447 105.857829,122.767892 105.599598,122.794734 C105.342037,122.821577 105.107951,122.873919 104.896,122.95042 C104.68472,123.026921 104.511671,123.134962 104.377524,123.273201 C104.242707,123.41144 104.175634,123.589271 104.175634,123.804011 C104.175634,124.120081 104.280939,124.346899 104.49289,124.485138 C104.7035,124.624048 104.990573,124.693167 105.352098,124.693167 C105.636488,124.693167 105.878622,124.644851 106.079171,124.548889 C106.278378,124.452256 106.440024,124.32811 106.563439,124.173766 C106.686183,124.020092 106.77472,123.848972 106.828378,123.660403 C106.882037,123.471835 106.909537,123.28528 106.909537,123.100738 L106.909537,122.75447 L106.355512,122.75447 L106.355512,122.75447 Z M103.425756,120.584928 C103.717524,120.315162 104.056244,120.113172 104.440573,119.978289 C104.825573,119.844076 105.209232,119.776299 105.594232,119.776299 C105.993988,119.776299 106.338744,119.826629 106.626488,119.926617 C106.914902,120.026605 107.152341,120.161489 107.336122,120.330596 C107.520573,120.500375 107.656732,120.694311 107.745268,120.913749 C107.833805,121.132515 107.878744,121.362018 107.878744,121.599573 L107.878744,124.392532 C107.878744,124.585797 107.881427,124.762287 107.889476,124.924012 C107.897524,125.085738 107.908927,125.239411 107.925024,125.385703 L107.001427,125.385703 C106.978622,125.108554 106.96722,124.832077 106.96722,124.554928 L106.943744,124.554928 C106.713012,124.908578 106.440024,125.158884 106.12478,125.305175 C105.809537,125.451467 105.444659,125.523941 105.028805,125.523941 C104.775939,125.523941 104.533134,125.489717 104.302402,125.420598 C104.071671,125.350807 103.86978,125.247464 103.696061,125.108554 C103.523012,124.970316 103.386854,124.799195 103.287585,124.595192 C103.186305,124.391189 103.136671,124.154976 103.136671,123.88588 C103.136671,123.53156 103.215817,123.23495 103.37411,122.996053 C103.531061,122.758497 103.746366,122.563889 104.020024,122.413571 C104.292341,122.263924 104.61161,122.155883 104.977159,122.09079 C105.342037,122.025026 105.732402,121.992144 106.147585,121.992144 L106.909537,121.992144 L106.909537,121.76197 C106.909537,121.623061 106.882037,121.484151 106.828378,121.345912 C106.77472,121.207673 106.693561,121.082856 106.586244,120.97146 C106.478927,120.860064 106.343439,120.770812 106.182463,120.705719 C106.021488,120.640626 105.828988,120.607744 105.606305,120.607744 C105.405756,120.607744 105.230695,120.626534 105.081122,120.665456 C104.930878,120.703706 104.794049,120.752023 104.671305,120.809734 C104.548561,120.866774 104.436549,120.934551 104.33661,121.011052 C104.237341,121.088896 104.140085,121.16137 104.048866,121.23049 L103.425756,120.584928 L103.425756,120.584928 Z" id="Fill-55" fill="#FFFFFF"></path>
                                            <path d="M112.584665,121.288469 C112.46125,121.134796 112.309665,121.005281 112.128567,120.901938 C111.94814,120.797923 111.72747,120.745581 111.465884,120.745581 C111.219726,120.745581 111.005762,120.797923 110.825335,120.901938 C110.644238,121.005281 110.55436,121.157612 110.55436,121.35826 C110.55436,121.519314 110.606677,121.650171 110.70997,121.75016 C110.813933,121.850148 110.936677,121.930675 111.079543,121.992413 C111.221738,122.054151 111.373323,122.100454 111.53564,122.131323 C111.696616,122.162191 111.835457,122.189034 111.950823,122.21185 C112.173506,122.265535 112.382774,122.331299 112.579299,122.4078 C112.775152,122.484972 112.944177,122.58496 113.086372,122.707764 C113.229238,122.83124 113.340579,122.980887 113.421067,123.158047 C113.501555,123.335207 113.54247,123.550618 113.54247,123.804279 C113.54247,124.112296 113.476738,124.376023 113.345945,124.595461 C113.215152,124.814227 113.046128,124.9934 112.838872,125.13231 C112.630274,125.270549 112.394848,125.370537 112.128567,125.431603 C111.864299,125.493341 111.596677,125.52421 111.327043,125.52421 C110.873628,125.52421 110.475213,125.45509 110.133811,125.316181 C109.791067,125.177942 109.485213,124.924281 109.216921,124.554526 L110.000335,123.908294 C110.17003,124.077401 110.358506,124.227719 110.565762,124.358576 C110.773689,124.489433 111.027226,124.554526 111.327043,124.554526 C111.457835,124.554526 111.59064,124.541776 111.725457,124.514262 C111.860274,124.48742 111.979665,124.445143 112.082957,124.387432 C112.18625,124.32972 112.271433,124.256575 112.337165,124.167994 C112.402226,124.079414 112.434421,123.977413 112.434421,123.86199 C112.434421,123.708317 112.386799,123.581487 112.290884,123.481498 C112.194299,123.38151 112.078933,123.302325 111.944116,123.244614 C111.80997,123.186902 111.667774,123.14127 111.51753,123.106375 C111.367957,123.07148 111.235152,123.042624 111.119787,123.019808 C110.896433,122.966123 110.685152,122.904386 110.485274,122.835266 C110.285396,122.765476 110.108994,122.672869 109.954726,122.558118 C109.801128,122.442695 109.677713,122.296404 109.585152,122.119244 C109.493262,121.942754 109.446982,121.722646 109.446982,121.461603 C109.446982,121.177073 109.506006,120.92878 109.626067,120.716725 C109.744787,120.50534 109.903079,120.330193 110.098933,120.191955 C110.294787,120.053045 110.51747,119.949702 110.767652,119.879911 C111.017835,119.811463 111.26936,119.776568 111.523567,119.776568 C111.89314,119.776568 112.246616,119.845687 112.584665,119.984597 C112.922713,120.122835 113.192348,120.35301 113.392226,120.676461 L112.584665,121.288469 L112.584665,121.288469 Z" id="Fill-56" fill="#FFFFFF"></path>
                                            <path d="M118.017994,120.815304 L116.52964,120.815304 L116.52964,123.296218 C116.52964,123.450563 116.533665,123.602222 116.541043,123.75254 C116.549091,123.902858 116.577933,124.03707 116.627567,124.156519 C116.677872,124.275968 116.754335,124.37193 116.858299,124.445076 C116.962933,124.518221 117.113848,124.554459 117.313726,124.554459 C117.43714,124.554459 117.563909,124.543051 117.695372,124.520235 C117.826165,124.496747 117.944884,124.455142 118.052872,124.392733 L118.052872,125.339601 C117.929457,125.40872 117.769823,125.456365 117.57397,125.483879 C117.378116,125.510721 117.22586,125.524143 117.117872,125.524143 C116.718116,125.524143 116.408909,125.468445 116.189579,125.357048 C115.97025,125.245652 115.808604,125.101374 115.705311,124.924214 C115.601348,124.747053 115.53964,124.548419 115.520189,124.329653 C115.500738,124.110216 115.491348,123.889437 115.491348,123.665973 L115.491348,120.815304 L114.291409,120.815304 L114.291409,119.914739 L115.491348,119.914739 L115.491348,118.380021 L116.52964,118.380021 L116.52964,119.914739 L118.017994,119.914739 L118.017994,120.815304 L118.017994,120.815304 Z" id="Fill-57" fill="#FFFFFF"></path>
                                            <path d="M119.644384,119.914873 L120.682677,119.914873 L120.682677,120.757727 L120.705482,120.757727 C120.775238,120.611435 120.867128,120.478565 120.982494,120.359116 C121.09786,120.239667 121.22664,120.138337 121.368835,120.053112 C121.51103,119.968558 121.667311,119.901452 121.836335,119.851123 C122.00536,119.801464 122.174384,119.776635 122.343409,119.776635 C122.513104,119.776635 122.666701,119.799451 122.805543,119.845083 L122.759262,120.965085 C122.67475,120.942269 122.590238,120.922808 122.505726,120.907373 C122.420543,120.891939 122.336701,120.884557 122.251518,120.884557 C121.744445,120.884557 121.355421,121.026822 121.086457,121.311353 C120.816823,121.596554 120.682677,122.038783 120.682677,122.638712 L120.682677,125.385367 L119.644384,125.385367 L119.644384,119.914873 L119.644384,119.914873 Z" id="Fill-58" fill="#FFFFFF"></path>
                                            <path d="M124.835378,122.650255 C124.835378,122.927403 124.877634,123.183077 124.962146,123.417949 C125.046659,123.65282 125.166049,123.852797 125.320317,124.017878 C125.473915,124.18363 125.66172,124.313816 125.885073,124.410449 C126.107756,124.507082 126.35861,124.554727 126.634951,124.554727 C126.912634,124.554727 127.161476,124.507082 127.3855,124.410449 C127.608183,124.313816 127.796659,124.18363 127.950256,124.017878 C128.103854,123.852797 128.223244,123.65282 128.307756,123.417949 C128.392939,123.183077 128.434524,122.927403 128.434524,122.650255 C128.434524,122.373106 128.392939,122.117432 128.307756,121.88256 C128.223244,121.64836 128.103854,121.448383 127.950256,121.282631 C127.796659,121.11755 127.608183,120.986693 127.3855,120.89006 C127.161476,120.794098 126.912634,120.745782 126.634951,120.745782 C126.35861,120.745782 126.107756,120.794098 125.885073,120.89006 C125.66172,120.986693 125.473915,121.11755 125.320317,121.282631 C125.166049,121.448383 125.046659,121.64836 124.962146,121.88256 C124.877634,122.117432 124.835378,122.373106 124.835378,122.650255 M123.728,122.650255 C123.728,122.250302 123.803122,121.877192 123.953366,121.530924 C124.102939,121.183985 124.308854,120.880665 124.569768,120.618951 C124.831354,120.357237 125.13922,120.151221 125.492695,120.001575 C125.846841,119.851257 126.227146,119.776769 126.634951,119.776769 C127.042756,119.776769 127.423061,119.851257 127.777207,120.001575 C128.130683,120.151221 128.438549,120.357237 128.700134,120.618951 C128.961049,120.880665 129.166963,121.183985 129.317878,121.530924 C129.46678,121.877192 129.541902,122.250302 129.541902,122.650255 C129.541902,123.050878 129.46678,123.425331 129.317878,123.775625 C129.166963,124.125919 128.961049,124.429239 128.700134,124.687597 C128.438549,124.945285 128.130683,125.149288 127.777207,125.298934 C127.423061,125.449252 127.042756,125.52374 126.634951,125.52374 C126.227146,125.52374 125.846841,125.449252 125.492695,125.298934 C125.13922,125.149288 124.831354,124.945285 124.569768,124.687597 C124.308854,124.429239 124.102939,124.125919 123.953366,123.775625 C123.803122,123.425331 123.728,123.050878 123.728,122.650255" id="Fill-59" fill="#FFFFFF"></path>
                                            <path d="M95.5124634,137.111497 L97.1383171,137.111497 C97.3073415,137.111497 97.4944756,137.094049 97.6977073,137.059154 C97.9022805,137.02493 98.0920976,136.95581 98.2685,136.851125 C98.4455732,136.747781 98.5964878,136.607529 98.7192317,136.430369 C98.8419756,136.25388 98.9036829,136.019008 98.9036829,135.726426 C98.9036829,135.241919 98.7453902,134.878204 98.4308171,134.635951 C98.1155732,134.393026 97.6883171,134.272235 97.1497195,134.272235 L95.5124634,134.272235 L95.5124634,137.111497 L95.5124634,137.111497 Z M95.5124634,133.302551 L97.0229512,133.302551 C97.2315488,133.302551 97.4267317,133.281748 97.6111829,133.2388 C97.7956341,133.197195 97.9579512,133.126062 98.096122,133.025403 C98.2349634,132.926086 98.3442927,132.798584 98.4247805,132.644911 C98.505939,132.490567 98.5455122,132.30267 98.5455122,132.079206 C98.5455122,131.756425 98.4415488,131.475251 98.2349634,131.236353 C98.0263659,130.998797 97.7003902,130.878677 97.2536829,130.878677 L95.5124634,130.878677 L95.5124634,133.302551 L95.5124634,133.302551 Z M94.4044146,129.909664 L97.2422805,129.909664 C97.5957561,129.909664 97.9250854,129.951941 98.2289268,130.036495 C98.5320976,130.121048 98.7943537,130.246537 99.0130122,130.411618 C99.2323415,130.57737 99.4053902,130.788755 99.5321585,131.046442 C99.6589268,131.30413 99.7226463,131.606108 99.7226463,131.952375 C99.7226463,132.422119 99.5918537,132.804624 99.3302683,133.100562 C99.0693537,133.397171 98.7306341,133.613924 98.3154512,133.752834 L98.3154512,133.77565 C98.560939,133.791755 98.7923415,133.854164 99.0076463,133.96556 C99.2222805,134.077627 99.4094146,134.223919 99.5670366,134.405105 C99.7239878,134.585621 99.8500854,134.795663 99.9419756,135.03389 C100.033866,135.272788 100.080817,135.530476 100.080817,135.807624 C100.080817,136.176037 100.005024,136.501502 99.8554512,136.782676 C99.7052073,137.06318 99.4992927,137.299394 99.238378,137.491989 C98.976122,137.684583 98.6729512,137.830875 98.3261829,137.930863 C97.9807561,138.030851 97.6071585,138.08051 97.2074024,138.08051 L94.4044146,138.08051 L94.4044146,129.909664 L94.4044146,129.909664 Z" id="Fill-60" fill="#FFFFFF"></path>
                                            <path d="M104.648567,135.449546 C104.402409,135.449546 104.150884,135.462967 103.892652,135.489809 C103.634421,135.516652 103.400335,135.568995 103.189055,135.645496 C102.977104,135.721997 102.804055,135.830038 102.670579,135.968276 C102.535762,136.106515 102.468018,136.284346 102.468018,136.499086 C102.468018,136.815156 102.573323,137.041975 102.785945,137.180213 C102.996555,137.319123 103.283628,137.388242 103.645152,137.388242 C103.929543,137.388242 104.171677,137.339926 104.371555,137.243964 C104.571433,137.147331 104.732409,137.023185 104.855823,136.868841 C104.978567,136.715168 105.067774,136.544047 105.121433,136.355479 C105.175091,136.16691 105.201921,135.980355 105.201921,135.795813 L105.201921,135.449546 L104.648567,135.449546 L104.648567,135.449546 Z M101.71814,133.280004 C102.009909,133.010237 102.348628,132.808247 102.733628,132.673364 C103.117957,132.539152 103.502287,132.471374 103.887287,132.471374 C104.287043,132.471374 104.631128,132.521704 104.919543,132.621692 C105.207957,132.72168 105.444726,132.856564 105.628506,133.025671 C105.812957,133.19545 105.949116,133.389387 106.038323,133.608824 C106.126189,133.82759 106.171128,134.057093 106.171128,134.294649 L106.171128,137.087607 C106.171128,137.280873 106.174482,137.457362 106.18253,137.619088 C106.190579,137.780813 106.201311,137.934487 106.217409,138.080778 L105.294482,138.080778 C105.271006,137.80363 105.259604,137.527152 105.259604,137.250004 L105.236799,137.250004 C105.006067,137.603653 104.732409,137.853959 104.417835,138.000251 C104.102591,138.146542 103.737043,138.219017 103.321189,138.219017 C103.068323,138.219017 102.825518,138.184792 102.594787,138.115673 C102.364055,138.045883 102.162165,137.942539 101.989116,137.80363 C101.816067,137.665391 101.679909,137.49427 101.57997,137.290267 C101.47936,137.086265 101.429726,136.850051 101.429726,136.580955 C101.429726,136.226635 101.508201,135.930026 101.666494,135.691128 C101.824116,135.453572 102.03875,135.258964 102.313079,135.108646 C102.585396,134.959 102.904665,134.850959 103.269543,134.785866 C103.634421,134.720102 104.024787,134.68722 104.43997,134.68722 L105.201921,134.68722 L105.201921,134.457046 C105.201921,134.318136 105.175091,134.179226 105.121433,134.040987 C105.067774,133.902749 104.986616,133.777931 104.879299,133.666535 C104.771982,133.555139 104.636494,133.465888 104.475518,133.400795 C104.313872,133.335702 104.122043,133.30282 103.898689,133.30282 C103.698811,133.30282 103.523079,133.321609 103.374177,133.360531 C103.223262,133.398782 103.087104,133.447098 102.963689,133.504809 C102.840945,133.561849 102.729604,133.629627 102.629665,133.706128 C102.529726,133.783971 102.43314,133.856445 102.341921,133.925565 L101.71814,133.280004 L101.71814,133.280004 Z" id="Fill-61" fill="#FFFFFF"></path>
                                            <path d="M107.970768,132.610016 L109.00839,132.610016 L109.00839,133.452869 L109.031866,133.452869 C109.101622,133.306578 109.192841,133.173707 109.308207,133.054259 C109.423573,132.93481 109.552354,132.833479 109.694549,132.748254 C109.837415,132.663701 109.993695,132.596595 110.16272,132.546265 C110.331744,132.496606 110.500098,132.471777 110.669122,132.471777 C110.838817,132.471777 110.993085,132.494593 111.131256,132.540225 L111.084976,133.660227 C111.001134,133.637411 110.915951,133.61795 110.831439,133.602516 C110.746927,133.587081 110.662415,133.5797 110.577902,133.5797 C110.070159,133.5797 109.681805,133.721965 109.412171,134.006495 C109.143207,134.291696 109.00839,134.733926 109.00839,135.333855 L109.00839,138.08051 L107.970768,138.08051 L107.970768,132.610016 L107.970768,132.610016 Z" id="Fill-62" fill="#FFFFFF"></path>
                                            <path d="M101.487476,42.7087727 C99.449122,42.7087727 97.9399756,42.2712406 96.9600366,41.3955052 C95.9787561,40.520441 95.489122,39.1595282 95.489122,37.3127668 L95.489122,31.8879052 L93.3548537,31.8879052 L93.3548537,27.1273946 L95.4602805,27.1273946 L95.4602805,23.7224283 L101.920098,23.7224283 L101.920098,27.1273946 L105.208024,27.1273946 L105.208024,31.8879052 L101.920098,31.8879052 L101.920098,35.9276957 C101.920098,36.6584818 102.07839,37.1543963 102.395646,37.413426 C102.713573,37.6731268 103.15022,37.8026417 103.708268,37.8026417 C103.919549,37.8026417 104.14089,37.784523 104.371622,37.7456015 C104.602354,37.707351 104.784793,37.6691005 104.91961,37.6301789 L104.91961,42.189371 C104.573512,42.3430441 104.087902,42.4678616 103.46278,42.5644944 C102.838329,42.6604563 102.179671,42.7087727 101.487476,42.7087727" id="Fill-63" fill="#FFFFFF"></path>
                                            <path d="M117.883713,26.7238182 C118.938104,26.7238182 119.815421,26.9157418 120.515665,27.3002601 C121.215238,27.6861205 121.770604,28.1806928 122.182433,28.7866614 C122.594262,29.39263 122.881335,30.0704021 123.044994,30.8206489 C123.207982,31.5708958 123.290482,32.3211426 123.290482,33.0713894 L123.290482,42.3045252 L116.627433,42.3045252 L116.627433,34.2256152 C116.627433,33.4565787 116.507372,32.9170452 116.26725,32.609699 C116.026457,32.3023528 115.665604,32.1480087 115.18603,32.1480087 C114.80103,32.1480087 114.455604,32.3164451 114.147738,32.653318 C113.839872,32.9901909 113.686274,33.5236849 113.686274,34.2544709 L113.686274,42.3045252 L107.024567,42.3045252 L107.024567,20.4909986 L113.686274,20.4909986 L113.686274,28.8014248 L113.743957,28.8014248 C114.126274,28.2431015 114.673591,27.757924 115.382555,27.3438791 C116.091518,26.9305052 116.925909,26.7238182 117.883713,26.7238182" id="Fill-64" fill="#FFFFFF"></path>
                                            <path d="M136.324878,32.6965344 C136.324878,32.157672 136.127012,31.7147714 135.733293,31.3685036 C135.338902,31.0229069 134.805,30.849773 134.132927,30.849773 C133.4025,30.849773 132.835061,31.0517625 132.43128,31.4550705 C132.028171,31.8590496 131.796768,32.2730946 131.739085,32.6965344 L136.324878,32.6965344 L136.324878,32.6965344 Z M142.064329,34.8607079 C142.064329,35.1110138 142.058963,35.3653462 142.049573,35.6243759 C142.039512,35.8840767 142.024756,36.1008296 142.006646,36.2739635 L131.796768,36.2739635 C131.815549,36.5430592 131.907439,36.7839703 132.071098,36.9953547 C132.233415,37.2074101 132.435305,37.3899389 132.676768,37.543612 C132.91622,37.6979561 133.185854,37.8133787 133.484329,37.8892087 C133.782134,37.9670518 134.084634,38.0046312 134.3925,38.0046312 C135.00689,38.0046312 135.522012,37.8945771 135.935183,37.6731268 C136.348354,37.4530186 136.660915,37.2074101 136.872195,36.9376434 L141.602195,39.332662 C140.92878,40.4285055 139.953537,41.294846 138.675122,41.9289992 C137.396707,42.5644944 135.911037,42.8819066 134.219451,42.8819066 C133.123476,42.8819066 132.057012,42.7087727 131.018049,42.3618339 C129.980427,42.0155661 129.061524,41.501533 128.264024,40.8190634 C127.465854,40.1359227 126.826646,39.2843456 126.346402,38.2650031 C125.865488,37.2456606 125.625366,36.0625791 125.625366,34.7164297 C125.625366,33.4655709 125.846037,32.3355033 126.28872,31.3255557 C126.730061,30.315608 127.331707,29.4606756 128.091646,28.7580742 C128.849573,28.0554727 129.744329,27.5125839 130.773232,27.1273946 C131.801463,26.7428764 132.901463,26.5509527 134.075244,26.5509527 C135.267134,26.5509527 136.35372,26.7569686 137.333659,27.1710136 C138.314939,27.5850586 139.156037,28.1615005 139.857622,28.9023524 C140.559207,29.6425333 141.1025,30.522966 141.486829,31.5416375 C141.871829,32.561651 142.064329,33.6675605 142.064329,34.8607079 L142.064329,34.8607079 L142.064329,34.8607079 Z" id="Fill-65" fill="#FFFFFF"></path>
                                            <path d="M105.063817,51.3788208 C104.833085,51.3305043 104.602354,51.3070172 104.371622,51.3070172 C103.717659,51.3070172 103.26089,51.5083356 103.001988,51.9123147 C102.742415,52.3156227 102.612293,52.8256295 102.612293,53.441664 L102.612293,53.6436535 L105.813024,53.6436535 L105.813024,58.4041641 L102.612293,58.4041641 L102.612293,68.8203814 L95.9499146,68.8203814 L95.9499146,58.4041641 L93.3548537,58.4041641 L93.3548537,53.6436535 L95.9499146,53.6436535 L95.9499146,53.2973857 C95.9499146,52.3552153 96.0612561,51.4506244 96.2832683,50.584955 C96.5052805,49.7192856 96.8869268,48.9549465 97.4275366,48.2905955 C97.9681463,47.6275867 98.6972317,47.1034876 99.614122,46.7189694 C100.531012,46.3337801 101.684671,46.1411854 103.073756,46.1411854 C103.515098,46.1411854 104.03022,46.1754095 104.616439,46.2425157 C105.202659,46.3102929 105.697659,46.420347 106.101439,46.5746911 L105.668817,51.5660469 C105.496439,51.4895459 105.294549,51.4264661 105.063817,51.3788208" id="Fill-66" fill="#FFFFFF"></path>
                                            <path d="M115.215207,62.5299847 C114.233927,62.5299847 113.445146,62.6360124 112.850878,62.8480679 C112.253927,63.0594523 111.956122,63.4540365 111.956122,64.0304783 C111.956122,64.2432048 112.004415,64.419694 112.099659,64.5646433 C112.196244,64.7089215 112.321671,64.8290416 112.475268,64.9250034 C112.629537,65.0216362 112.79722,65.0934398 112.980329,65.1424273 C113.162098,65.1900727 113.32978,65.2142309 113.48472,65.2142309 C114.118561,65.2142309 114.628317,65.0115703 115.013317,64.6082623 C115.396976,64.2036122 115.590146,63.6848816 115.590146,63.0493863 L115.590146,62.5299847 L115.215207,62.5299847 L115.215207,62.5299847 Z M115.157524,59.1840718 C115.157524,58.7217104 114.999232,58.3801401 114.681305,58.1586898 C114.364049,57.9385816 113.945512,57.8271854 113.427037,57.8271854 C112.811305,57.8271854 112.22978,57.9573713 111.681793,58.2164011 C111.134476,58.4761019 110.648195,58.7794217 110.225634,59.1263605 L106.909537,55.8361458 C107.831793,54.9516867 108.928439,54.268546 110.196793,53.7880659 C111.465817,53.3069148 112.773073,53.0666748 114.118561,53.0666748 C115.561305,53.0666748 116.753195,53.2686643 117.694902,53.6726433 C118.63728,54.0759513 119.382463,54.6342745 119.92978,55.3462708 C120.478439,56.0575961 120.862768,56.885015 121.08411,57.8271854 C121.30411,58.7693558 121.415451,59.7705796 121.415451,60.8281726 L121.415451,68.8205156 L115.388256,68.8205156 L115.388256,67.6085785 L115.330573,67.6085785 C114.945573,68.1856914 114.397585,68.5997364 113.68661,68.8493713 C112.974963,69.0990062 112.282768,69.2251658 111.610024,69.2251658 C111.013744,69.2251658 110.403378,69.1385988 109.778927,68.9647939 C109.153805,68.79166 108.586366,68.5131695 108.07661,68.1279801 C107.567524,67.7441329 107.149659,67.24285 106.822341,66.6274865 C106.495695,66.0121231 106.332037,65.2524814 106.332037,64.3478904 C106.332037,63.2902974 106.606366,62.4293255 107.154354,61.7656456 C107.702341,61.1026368 108.399232,60.5832352 109.245695,60.2074407 C110.090817,59.8323173 111.03722,59.578656 112.085573,59.4431016 C113.133256,59.3082182 114.157463,59.2417831 115.157524,59.2417831 L115.157524,59.1840718 L115.157524,59.1840718 Z" id="Fill-67" fill="#FFFFFF"></path>
                                            <path d="M130.470396,69.2248302 C128.432713,69.2248302 126.923567,68.7872981 125.942957,67.9115628 C124.962348,67.0364985 124.472043,65.6755857 124.472043,63.8288243 L124.472043,58.4039628 L122.337774,58.4039628 L122.337774,53.6434522 L124.443201,53.6434522 L124.443201,50.2384859 L130.903689,50.2384859 L130.903689,53.6434522 L134.190945,53.6434522 L134.190945,58.4039628 L130.903689,58.4039628 L130.903689,62.4437533 C130.903689,63.1745393 131.061982,63.6704538 131.379238,63.9294836 C131.696494,64.1891844 132.13314,64.3186993 132.69186,64.3186993 C132.90314,64.3186993 133.124482,64.3005806 133.355213,64.261659 C133.585945,64.2234085 133.767713,64.185158 133.90253,64.1462364 L133.90253,68.7054286 C133.557104,68.8591017 133.070823,68.9839191 132.445701,69.080552 C131.82125,69.1765138 131.163262,69.2248302 130.470396,69.2248302" id="Fill-68" fill="#FFFFFF"></path>
                                            <path d="M141.747073,69.2248302 C139.70872,69.2248302 138.199573,68.7872981 137.218963,67.9115628 C136.238354,67.0364985 135.74872,65.6755857 135.74872,63.8288243 L135.74872,58.4039628 L133.614451,58.4039628 L133.614451,53.6434522 L135.719878,53.6434522 L135.719878,50.2384859 L142.179695,50.2384859 L142.179695,53.6434522 L145.467622,53.6434522 L145.467622,58.4039628 L142.179695,58.4039628 L142.179695,62.4437533 C142.179695,63.1745393 142.337988,63.6704538 142.655244,63.9294836 C142.9725,64.1891844 143.409817,64.3186993 143.967866,64.3186993 C144.178476,64.3186993 144.399817,64.3005806 144.630549,64.261659 C144.86128,64.2234085 145.04439,64.185158 145.178537,64.1462364 L145.178537,68.7054286 C144.832439,68.8591017 144.346829,68.9839191 143.722378,69.080552 C143.097927,69.1765138 142.438598,69.2248302 141.747073,69.2248302" id="Fill-69" fill="#FFFFFF"></path>
                                            <path d="M151.667262,68.2175668 L145.524701,53.6434522 L152.907445,53.6434522 L155.156409,61.6357952 L155.271774,61.6357952 L157.261835,53.6434522 L164.385677,53.6434522 L158.156591,69.7435608 C157.791043,70.6864023 157.377201,71.5279135 156.915738,72.2680943 C156.454945,73.0089463 155.916348,73.6390731 155.300616,74.1584747 C154.685555,74.6778764 153.959823,75.0717895 153.123421,75.3415562 C152.287689,75.6106519 151.311774,75.7455353 150.197018,75.7455353 C149.85025,75.7455353 149.494762,75.7301009 149.129213,75.7019163 C148.763665,75.6723896 148.412201,75.6341391 148.076835,75.5851516 C147.740799,75.5368351 147.427567,75.4885187 147.139152,75.4415444 C146.850738,75.3918858 146.609945,75.338872 146.418787,75.2811607 L147.254518,69.7724165 C147.504701,69.8683783 147.807201,69.9502478 148.16336,70.018025 C148.518848,70.0844601 148.840799,70.1186842 149.129213,70.1186842 C149.860311,70.1186842 150.402262,69.9690375 150.759091,69.6724283 C151.114579,69.374477 151.378177,68.9953272 151.551896,68.534979 L151.667262,68.2175668 L151.667262,68.2175668 Z" id="Fill-70" fill="#FFFFFF"></path>
                                            <path d="M106.274957,87.6908335 C106.274957,87.0170877 106.063677,86.4305799 105.640445,85.930639 C105.217213,85.4300271 104.602152,85.1803922 103.794591,85.1803922 C103.005811,85.1803922 102.376665,85.4300271 101.90514,85.930639 C101.434287,86.4305799 101.19953,87.0170877 101.19953,87.6908335 C101.19953,88.4028298 101.434287,89.0081273 101.90514,89.5080681 C102.376665,90.00868 103.005811,90.2583149 103.794591,90.2583149 C104.602152,90.2583149 105.217213,90.0133775 105.640445,89.5221604 C106.063677,89.0316144 106.274957,88.4216195 106.274957,87.6908335 M112.44636,87.6908335 C112.44636,88.6907152 112.297457,89.6718071 112.000323,90.6334383 C111.703189,91.5950695 111.266543,92.4567126 110.691055,93.2156832 C110.115567,93.9759959 109.395872,94.5859909 108.53264,95.0476812 C107.669409,95.5093715 106.672701,95.7408878 105.540506,95.7408878 C104.600811,95.7408878 103.708738,95.5623854 102.864287,95.2067228 C102.020506,94.8510602 101.377274,94.3652116 100.937274,93.7498482 L100.879591,93.7498482 L100.879591,95.3369087 L94.8839207,95.3369087 L94.8839207,73.5233821 L101.544957,73.5233821 L101.544957,81.3714469 L101.60264,81.3714469 C102.043311,80.8520452 102.628189,80.4534347 103.356604,80.1742731 C104.085689,79.8951115 104.814774,79.7562017 105.543189,79.7562017 C106.674713,79.7562017 107.672091,79.9870469 108.534652,80.4480662 C109.397213,80.9097565 110.116909,81.5157251 110.691726,82.2659719 C111.266543,83.0155477 111.703189,83.8624273 112.000323,84.8045977 C112.297457,85.7474392 112.44636,86.7090704 112.44636,87.6908335" id="Fill-71" fill="#FFFFFF"></path>
                                            <path d="M123.001329,89.0460423 C122.02072,89.0460423 121.231939,89.15207 120.637,89.3641254 C120.040049,89.5755098 119.742915,89.970094 119.742915,90.5465359 C119.742915,90.7592624 119.790537,90.9357516 119.886451,91.0807009 C119.982366,91.2249791 120.107793,91.3450991 120.26139,91.4410609 C120.415659,91.5376938 120.584012,91.6094974 120.766451,91.6584849 C120.94889,91.7061302 121.116573,91.7302884 121.271512,91.7302884 C121.905354,91.7302884 122.41511,91.5276279 122.799439,91.1243199 C123.183768,90.7196698 123.376939,90.2009392 123.376939,89.5654439 L123.376939,89.0460423 L123.001329,89.0460423 L123.001329,89.0460423 Z M122.943646,85.7001294 C122.943646,85.237768 122.785354,84.8961976 122.467427,84.6747473 C122.150171,84.4546392 121.732305,84.3432429 121.213829,84.3432429 C120.598098,84.3432429 120.016573,84.4734289 119.468585,84.7324586 C118.920598,84.9921594 118.434988,85.2954793 118.012427,85.6424181 L114.695659,82.3522033 C115.618585,81.4677442 116.714561,80.7846035 117.983585,80.3041235 C119.25261,79.8229724 120.559195,79.5827323 121.905354,79.5827323 C123.348098,79.5827323 124.539317,79.7847218 125.481695,80.1887009 C126.424073,80.5920089 127.169256,81.1503321 127.716573,81.8623284 C128.264561,82.5736536 128.64889,83.4010725 128.870232,84.3432429 C129.090902,85.2854133 129.202244,86.2866372 129.202244,87.3442302 L129.202244,95.3365732 L123.175049,95.3365732 L123.175049,94.124636 L123.116695,94.124636 C122.732366,94.701749 122.183707,95.1157939 121.473402,95.3654288 C120.761756,95.6150637 120.06889,95.7412233 119.396817,95.7412233 C118.800537,95.7412233 118.1895,95.6546564 117.56572,95.4808514 C116.940598,95.3077176 116.373159,95.029227 115.863402,94.6440377 C115.354317,94.2601905 114.936451,93.7589075 114.608463,93.1435441 C114.282488,92.5281806 114.118829,91.768539 114.118829,90.863948 C114.118829,89.806355 114.392488,88.945383 114.940476,88.2817032 C115.489134,87.6186943 116.185354,87.0992927 117.031817,86.7234982 C117.876939,86.3483748 118.824012,86.0947136 119.872366,85.9591591 C120.920049,85.8242758 121.943585,85.7578407 122.943646,85.7578407 L122.943646,85.7001294 L122.943646,85.7001294 Z" id="Fill-72" fill="#FFFFFF"></path>
                                            <path d="M139.958902,85.2091136 C139.227805,85.2091136 138.63622,85.4587485 138.184817,85.9593605 C137.733415,86.4599724 137.507378,87.0458091 137.507378,87.7195549 C137.507378,88.4315512 137.73811,89.0368487 138.199573,89.5367896 C138.660366,90.0374015 139.256646,90.2870364 139.987744,90.2870364 C140.7175,90.2870364 141.314451,90.0374015 141.775915,89.5367896 C142.236707,89.0368487 142.467439,88.4315512 142.467439,87.7195549 C142.467439,87.0458091 142.232012,86.4599724 141.761829,85.9593605 C141.289634,85.4587485 140.688659,85.2091136 139.958902,85.2091136 M148.638841,87.6906992 C148.638841,88.9985982 148.403415,90.16289 147.933232,91.1815614 C147.461707,92.201575 146.827195,93.0618759 146.029695,93.7644773 C145.230854,94.4670788 144.307927,95.0005727 143.260915,95.3656302 C142.21189,95.7306876 141.11189,95.9138874 139.958902,95.9138874 C138.824695,95.9138874 137.733415,95.7306876 136.685061,95.3656302 C135.637378,95.0005727 134.718476,94.4670788 133.931707,93.7644773 C133.142927,93.0618759 132.512439,92.201575 132.042256,91.1815614 C131.570732,90.16289 131.335976,88.9985982 131.335976,87.6906992 C131.335976,86.40159 131.570732,85.2520616 132.042256,84.242785 C132.512439,83.2328374 133.142927,82.3812603 133.931707,81.6893958 C134.718476,80.9961893 135.637378,80.4727612 136.685061,80.1164276 C137.733415,79.7607649 138.824695,79.5829336 139.958902,79.5829336 C141.11189,79.5829336 142.21189,79.7607649 143.260915,80.1164276 C144.307927,80.4727612 145.230854,80.9961893 146.029695,81.6893958 C146.827195,82.3812603 147.461707,83.2328374 147.933232,84.242785 C148.403415,85.2520616 148.638841,86.40159 148.638841,87.6906992" id="Fill-73" fill="#FFFFFF"></path>
                                        </g>
                                    </g>
                                </g>
                            </g>
                        </g>
                    </g>
                </g>
            </g>
        </g>
    </g>
</svg>