<?xml version="1.0" encoding="UTF-8" standalone="no"?>
<svg width="100px" height="100px" viewBox="0 0 100 100" version="1.1" xmlns="http://www.w3.org/2000/svg" xmlns:xlink="http://www.w3.org/1999/xlink">
    <!-- Generator: Sketch 40.1 (33804) - http://www.bohemiancoding.com/sketch -->
    <title>Group 16</title>
    <desc>Created with Sketch.</desc>
    <defs></defs>
    <g id="final" stroke="none" stroke-width="1" fill="none" fill-rule="evenodd">
        <g id="Artboard-Copy-8" transform="translate(-419.000000, -3893.000000)">
            <g id="4_savings" transform="translate(239.000000, 3893.000000)">
                <g id="Group-21">
                    <g id="Group-20">
                        <g id="Group-16" transform="translate(180.000000, 0.000000)">
                            <g id="noun_572798_cc" fill="#444750">
                                <g id="Group">
                                    <path d="M98.4693878,34.1836735 C92.9591837,28.6734694 74.1836735,41.8367347 67.4489796,48.5714286 C66.8367347,49.1836735 66.2244898,49.8979592 65.8163265,50.7142857 L63.0612245,50.7142857 C64.2857143,48.9795918 64.3877551,46.6326531 63.3673469,44.7959184 L94.6938776,13.4693878 C95.3061224,12.8571429 95.3061224,11.9387755 94.6938776,11.3265306 C94.0816327,10.7142857 93.1632653,10.7142857 92.5510204,11.3265306 L61.122449,42.5510204 C60.2040816,42.1428571 59.1836735,41.8367347 58.1632653,41.8367347 C58.1632653,40.8163265 57.9591837,39.7959184 57.4489796,38.877551 L88.877551,7.65306122 C89.4897959,7.04081633 89.4897959,6.12244898 88.877551,5.51020408 C88.2653061,4.89795918 87.3469388,4.89795918 86.7346939,5.51020408 L55.3061224,36.8367347 C53.4693878,35.8163265 51.122449,35.9183673 49.3877551,37.1428571 L49.3877551,34.3877551 C50.1020408,33.877551 50.8163265,33.3673469 51.5306122,32.755102 C55.7142857,28.5714286 60.4081633,22.244898 63.4693878,16.4285714 C67.4489796,8.97959184 68.2653061,4.08163265 65.9183673,1.63265306 C60.4081633,-3.87755102 41.6326531,9.18367347 34.7959184,16.0204082 C30.2040816,20.6122449 30.2040816,28.0612245 34.7959184,32.6530612 C35.2040816,33.0612245 35.6122449,33.3673469 36.0204082,33.6734694 L36.0204082,47.3469388 C34.3877551,49.0816327 33.6734694,51.4285714 33.7755102,53.6734694 C32.1428571,53.0612245 30.2040816,53.1632653 28.3673469,55 C26.4285714,56.9387755 25.8163265,59.5918367 26.3265306,62.0408163 C25,62.1428571 23.6734694,62.6530612 22.6530612,63.6734694 C21.122449,65.2040816 20.7142857,67.244898 21.2244898,69.1836735 C20.4081633,69.2857143 19.5918367,69.5918367 18.9795918,70.2040816 C18.1632653,71.0204082 17.6530612,72.244898 17.6530612,73.4693878 L17.6530612,73.5714286 C14.1836735,72.6530612 10.4081633,73.0612245 5.20408163,76.0204082 C2.14285714,77.755102 0.510204082,79.6938776 0.204081633,81.8367347 C-0.102040816,84.1836735 1.32653061,85.7142857 1.53061224,85.9183673 L3.06122449,87.4489796 C2.24489796,90.1020408 2.85714286,93.0612245 5,95.1020408 C6.42857143,96.5306122 8.36734694,97.3469388 10.4081633,97.3469388 C11.2244898,97.3469388 11.9387755,97.244898 12.6530612,97.0408163 L13.9795918,98.3673469 C14.0816327,98.4693878 15.4081633,99.6938776 17.3469388,99.6938776 L17.9591837,99.6938776 C20.1020408,99.3877551 22.0408163,97.755102 23.7755102,94.6938776 C26.7346939,89.5918367 27.1428571,85.8163265 26.3265306,82.3469388 L26.5306122,82.3469388 C27.755102,82.3469388 28.877551,81.9387755 29.7959184,81.0204082 C30.4081633,80.4081633 30.7142857,79.5918367 30.8163265,78.7755102 C31.3265306,78.877551 31.8367347,78.9795918 32.3469388,78.9795918 C33.7755102,78.9795918 35.2040816,78.4693878 36.3265306,77.3469388 C37.3469388,76.3265306 37.8571429,75 37.9591837,73.6734694 C38.4693878,73.7755102 39.0816327,73.877551 39.5918367,73.877551 C41.5306122,73.877551 43.4693878,73.1632653 45,71.6326531 C46.9387755,69.6938776 46.8367347,67.755102 46.4285714,66.5306122 C46.4285714,66.4285714 46.3265306,66.3265306 46.3265306,66.2244898 L46.7346939,66.2244898 C48.877551,66.2244898 50.9183673,65.4081633 52.6530612,63.877551 L66.3265306,63.877551 C66.6326531,64.2857143 66.9387755,64.6938776 67.3469388,65.1020408 C69.6938776,67.4489796 72.6530612,68.5714286 75.7142857,68.5714286 C78.6734694,68.5714286 81.7346939,67.4489796 83.9795918,65.1020408 C90.9183673,58.4693878 103.979592,39.6938776 98.4693878,34.1836735 L98.4693878,34.1836735 Z M94.6938776,35.8163265 L82.9591837,47.6530612 C80.9183673,46.122449 78.5714286,45.3061224 76.122449,45.2040816 C83.0612245,39.8979592 91.0204082,35.9183673 94.6938776,35.8163265 L94.6938776,35.8163265 Z M60.2040816,45.7142857 C61.2244898,46.7346939 61.2244898,48.3673469 60.2040816,49.2857143 C59.6938776,49.7959184 59.0816327,50 58.3673469,50 L58.3673469,50 C57.6530612,50 57.0408163,49.6938776 56.5306122,49.2857143 C56.0204082,48.7755102 55.8163265,48.1632653 55.8163265,47.4489796 C55.8163265,46.7346939 56.122449,46.122449 56.5306122,45.6122449 C57.0408163,45.1020408 57.6530612,44.8979592 58.3673469,44.8979592 C59.0816327,44.8979592 59.6938776,45.2040816 60.2040816,45.7142857 L60.2040816,45.7142857 Z M54.3877551,39.8979592 C55.4081633,40.9183673 55.4081633,42.5510204 54.3877551,43.4693878 C53.3673469,44.4897959 51.7346939,44.4897959 50.8163265,43.4693878 C49.7959184,42.4489796 49.7959184,40.8163265 50.8163265,39.8979592 C51.3265306,39.3877551 51.9387755,39.1836735 52.6530612,39.1836735 C53.2653061,39.0816327 53.877551,39.3877551 54.3877551,39.8979592 L54.3877551,39.8979592 Z M60.7142857,14.8979592 C59.0816327,17.8571429 57.0408163,21.0204082 54.8979592,23.9795918 C54.7959184,21.5306122 53.9795918,19.1836735 52.4489796,17.244898 L64.1836735,5.51020408 C64.0816327,7.34693878 63.1632653,10.5102041 60.7142857,14.8979592 L60.7142857,14.8979592 Z M34.4897959,24.2857143 C34.4897959,21.9387755 35.4081633,19.7959184 37.0408163,18.1632653 C41.0204082,14.1836735 47.1428571,9.69387755 52.6530612,6.73469388 C57.0408163,4.3877551 60.2040816,3.36734694 62.0408163,3.36734694 L49.2857143,16.0204082 C48.9795918,16.3265306 48.877551,16.7346939 48.877551,17.1428571 C48.877551,17.5510204 49.0816327,17.9591837 49.2857143,18.2653061 C50.9183673,19.8979592 51.8367347,22.1428571 51.8367347,24.3877551 C51.8367347,26.7346939 50.9183673,28.877551 49.2857143,30.5102041 C45.9183673,33.877551 40.4081633,33.877551 37.0408163,30.5102041 C35.4081633,28.7755102 34.4897959,26.6326531 34.4897959,24.2857143 L34.4897959,24.2857143 Z M43.1632653,36.0204082 C44.1836735,36.0204082 45.3061224,35.9183673 46.2244898,35.6122449 L46.2244898,37.9591837 C45.2040816,38.3673469 44.2857143,38.9795918 43.4693878,39.7959184 L39.0816327,44.1836735 L39.0816327,35.2040816 C40.5102041,35.8163265 41.8367347,36.0204082 43.1632653,36.0204082 L43.1632653,36.0204082 Z M21.2244898,93.1632653 C20,95.2040816 18.7755102,96.5306122 17.6530612,96.6326531 C16.7346939,96.7346939 16.122449,96.2244898 16.122449,96.2244898 L15.3061224,95.4081633 C15.4081633,95.3061224 15.6122449,95.2040816 15.7142857,95.1020408 C16.7346939,94.0816327 17.4489796,92.8571429 17.755102,91.4285714 C17.9591837,90.6122449 17.4489796,89.7959184 16.6326531,89.5918367 C15.8163265,89.3877551 15,89.8979592 14.7959184,90.7142857 C14.5918367,91.5306122 14.1836735,92.3469388 13.5714286,92.8571429 C12.6530612,93.7755102 11.5306122,94.1836735 10.3061224,94.1836735 C9.08163265,94.1836735 7.95918367,93.6734694 7.04081633,92.8571429 C5.20408163,91.0204082 5.20408163,88.1632653 7.04081633,86.3265306 C7.65306122,85.7142857 8.36734694,85.3061224 9.18367347,85.1020408 C10,84.8979592 10.5102041,84.0816327 10.3061224,83.2653061 C10.1020408,82.4489796 9.28571429,81.9387755 8.46938776,82.1428571 C7.04081633,82.4489796 5.81632653,83.1632653 4.79591837,84.1836735 C4.69387755,84.2857143 4.59183673,84.3877551 4.48979592,84.5918367 L3.57142857,83.6734694 C3.57142857,83.6734694 2.95918367,83.0612245 3.16326531,82.1428571 C3.36734694,81.0204082 4.59183673,79.7959184 6.63265306,78.5714286 C13.3673469,74.6938776 16.7346939,75.9183673 20.1020408,77.755102 L21.9387755,79.5918367 C23.877551,83.0612245 25.1020408,86.4285714 21.2244898,93.1632653 L21.2244898,93.1632653 Z M27.755102,78.877551 C27.1428571,79.4897959 26.2244898,79.4897959 25.6122449,78.877551 L21.2244898,74.4897959 C20.9183673,74.1836735 20.8163265,73.7755102 20.8163265,73.3673469 C20.8163265,72.9591837 21.0204082,72.5510204 21.2244898,72.244898 C21.4285714,72.0408163 21.7346939,72.0408163 21.9387755,72.244898 L27.755102,78.0612245 C27.9591837,78.3673469 27.9591837,78.6734694 27.755102,78.877551 L27.755102,78.877551 Z M34.2857143,75.3061224 C33.2653061,76.3265306 31.6326531,76.3265306 30.7142857,75.3061224 L24.8979592,69.4897959 C23.877551,68.4693878 23.877551,66.8367347 24.8979592,65.9183673 C25.4081633,65.4081633 26.0204082,65.2040816 26.7346939,65.2040816 C27.4489796,65.2040816 28.0612245,65.4081633 28.5714286,65.9183673 L34.3877551,71.7346939 C35.2040816,72.6530612 35.2040816,74.2857143 34.2857143,75.3061224 L34.2857143,75.3061224 Z M41.4285714,64.4897959 C44.3877551,67.4489796 43.7755102,68.5714286 42.8571429,69.5918367 C41.0204082,71.4285714 38.1632653,71.4285714 36.3265306,69.5918367 L30.6122449,63.6734694 L30.6122449,63.6734694 C28.7755102,61.8367347 28.7755102,58.9795918 30.6122449,57.1428571 C31.5306122,56.2244898 32.6530612,55.6122449 35.6122449,58.5714286 L36.3265306,59.2857143 L36.3265306,59.2857143 L40.7142857,63.6734694 L41.4285714,64.4897959 L41.4285714,64.4897959 Z M42.8571429,61.5306122 L38.4693878,57.1428571 C36.3265306,55 36.3265306,51.4285714 38.4693878,49.1836735 L45.7142857,41.9387755 C46.0204082,41.6326531 46.4285714,41.3265306 46.7346939,41.122449 C46.8367347,41.2244898 46.8367347,41.2244898 46.9387755,41.3265306 C46.8367347,42.8571429 47.3469388,44.3877551 48.5714286,45.6122449 C49.6938776,46.7346939 51.122449,47.244898 52.5510204,47.244898 L52.755102,47.244898 L52.755102,47.4489796 C52.755102,48.9795918 53.3673469,50.4081633 54.3877551,51.4285714 C55.4081633,52.4489796 56.8367347,53.0612245 58.3673469,53.0612245 L58.3673469,53.0612245 C58.5714286,53.0612245 58.7755102,53.0612245 58.9795918,52.9591837 C58.6734694,53.4693878 58.3673469,53.877551 58.0612245,54.2857143 L50.8163265,61.5306122 C48.6734694,63.7755102 45.1020408,63.7755102 42.8571429,61.5306122 L42.8571429,61.5306122 Z M55.8163265,60.9183673 L60.2040816,56.5306122 C61.0204082,55.7142857 61.6326531,54.7959184 62.0408163,53.7755102 L64.3877551,53.7755102 C63.7755102,56.122449 63.877551,58.6734694 64.6938776,60.9183673 L55.8163265,60.9183673 L55.8163265,60.9183673 Z M75.8163265,65.6122449 C73.4693878,65.6122449 71.3265306,64.6938776 69.6938776,63.0612245 C66.3265306,59.6938776 66.3265306,54.1836735 69.6938776,50.8163265 C71.3265306,49.1836735 73.4693878,48.2653061 75.8163265,48.2653061 L75.8163265,48.2653061 C78.1632653,48.2653061 80.3061224,49.1836735 81.9387755,50.8163265 C82.5510204,51.4285714 83.4693878,51.4285714 84.0816327,50.8163265 L96.8367347,38.0612245 C96.8367347,42.9591837 89.5918367,55.4081633 81.9387755,63.1632653 C80.3061224,64.6938776 78.1632653,65.6122449 75.8163265,65.6122449 L75.8163265,65.6122449 L75.8163265,65.6122449 Z" id="Shape"></path>
                                </g>
                            </g>
                            <circle id="Oval" stroke="#FF7070" stroke-width="3" stroke-linecap="square" cx="58.6734694" cy="47.4489796" r="3.57142857"></circle>
                            <path d="M52.5510204,44.8979592 C54.5234659,44.8979592 56.122449,43.2989761 56.122449,41.3265306 C56.122449,39.3540851 54.5234659,37.755102 52.5510204,37.755102 C50.5785749,37.755102 48.9795918,39.3540851 48.9795918,41.3265306 C48.9795918,43.2989761 50.5785749,44.8979592 52.5510204,44.8979592 Z" id="Oval" stroke="#FF7070" stroke-width="3" stroke-linecap="square"></path>
                        </g>
                    </g>
                </g>
            </g>
        </g>
    </g>
</svg>