<?xml version="1.0" encoding="UTF-8"?>
<svg width="840px" height="881px" viewBox="0 0 840 881" version="1.1" xmlns="http://www.w3.org/2000/svg" xmlns:xlink="http://www.w3.org/1999/xlink">
    <!-- Generator: Sketch 44.1 (41455) - http://www.bohemiancoding.com/sketch -->
    <title>Group</title>
    <desc>Created with Sketch.</desc>
    <defs></defs>
    <g id="logo" stroke="none" stroke-width="1" fill="none" fill-rule="evenodd">
        <g id="Artboard-Copy-5" transform="translate(-350.000000, -328.000000)" fill="#FFFFFF">
            <g id="Group" transform="translate(350.000000, 328.000000)">
                <path d="M0.641221374,356.787078 L0.641221374,43.4049492 C0.641221374,31.4237326 4.84919456,21.221131 13.2652672,12.7968381 C21.6813398,4.37254518 31.873986,0.160461919 43.8435115,0.160461919 L53.3816794,0.160461919 C70.5878723,0.160461919 83.6793444,7.64860994 92.6564885,22.6251306 L197.015267,192.794996 L301.935115,22.0635139 C310.912259,7.46140624 323.81671,0.160461919 340.648855,0.160461919 L350.187023,0.160461919 C362.156548,0.160461919 372.349195,4.37254518 380.765267,12.7968381 C389.18134,21.221131 393.389313,31.4237326 393.389313,43.4049492 L393.389313,355.663844 C393.389313,367.645061 389.18134,377.847663 380.765267,386.271955 C372.349195,394.696248 362.156548,398.908332 350.187023,398.908332 C338.591545,398.908332 328.58592,394.696248 320.169847,386.271955 C311.753775,377.847663 307.545802,367.645061 307.545802,355.663844 L307.545802,159.65961 L231.801527,276.475887 C222.076287,291.077995 210.106941,298.378939 195.89313,298.378939 C181.679318,298.378939 169.709972,291.077995 159.984733,276.475887 L85.3625954,161.34446 L85.3625954,356.787078 C85.3625954,368.393881 81.2481327,378.315677 73.019084,386.552764 C64.7900352,394.78985 54.6908995,398.908332 42.721374,398.908332 C31.1258962,398.908332 21.2137816,394.78985 12.9847328,386.552764 C4.75568405,378.315677 0.641221374,368.393881 0.641221374,356.787078 Z" id="ME-SA"></path>
                <path d="M196.454198,880.935937 C141.843238,880.935937 92.6567074,865.210827 48.8931298,833.760133 C38.0457473,826.271873 32.6221374,815.414058 32.6221374,801.186364 C32.6221374,789.953973 36.549579,780.500186 44.4045802,772.824719 C52.2595813,765.149252 61.7976538,761.311577 73.019084,761.311577 C81.9962281,761.311577 90.2251534,763.932428 97.7061069,769.174211 C129.874207,792.762231 163.350971,804.556064 198.137405,804.556064 C215.717645,804.556064 229.557201,801.279999 239.656489,794.727771 C249.755776,788.175543 254.805344,779.096164 254.805344,767.48936 C254.805344,755.133736 249.568755,746.054357 239.09542,739.127716 C228.622085,732.201075 207.488709,724.619325 175.694656,716.382239 C153.251796,710.766044 135.110756,705.243535 121.270992,699.814546 C107.431229,694.385557 94.2462459,687.178215 81.7156489,678.192302 C69.1850519,669.20639 60.0210214,658.06777 54.2232824,644.776108 C48.4255435,631.484445 45.5267176,615.291325 45.5267176,596.196261 C45.5267176,559.503791 58.3376581,530.861625 83.9599237,509.14567 C109.582189,487.429715 142.591401,476.571901 182.98855,476.571901 C229.370461,476.571901 270.88913,488.17853 307.545802,511.392137 C320.263422,518.880397 326.622137,530.299823 326.622137,545.650757 C326.622137,556.883147 322.694696,566.336934 314.839695,574.012401 C306.984694,581.687868 297.446621,585.525544 286.225191,585.525544 C278.744237,585.525544 271.450417,583.466303 264.343511,579.34776 C234.419698,561.750348 206.927606,552.951774 181.866412,552.951774 C165.782362,552.951774 153.345464,556.134237 144.555344,562.499258 C135.765223,568.86428 131.370229,577.101243 131.370229,587.210394 C131.370229,601.06367 136.793839,610.611059 147.641221,616.97608 C158.488604,623.341101 181.30517,631.016453 216.091603,640.002365 C258.733038,651.234756 290.152571,665.555839 310.351145,682.966044 C330.549719,700.37625 340.648855,725.367944 340.648855,757.941876 C340.648855,797.255237 327.463872,827.114228 301.093511,848.642976 C274.723151,870.171725 239.843728,880.935937 196.454198,880.935937 Z" id="Path"></path>
                <path d="M546.881679,395.538631 C534.912154,395.538631 524.719508,391.326548 516.303435,382.902255 C507.887362,374.477962 503.679389,364.275361 503.679389,352.294144 L503.679389,45.6514161 C503.679389,33.6701995 507.887362,23.4675978 516.303435,15.0433049 C524.719508,6.61901205 534.912154,2.40692879 546.881679,2.40692879 L764.576336,2.40692879 C775.423718,2.40692879 784.587749,6.1510028 792.068702,13.6392631 C799.549656,21.1275235 803.290076,30.3005048 803.290076,41.1584823 C803.290076,51.6420468 799.549656,60.6278244 792.068702,68.1160848 C784.587749,75.6043451 775.423718,79.3484191 764.576336,79.3484191 L589.522901,79.3484191 L589.522901,159.097993 L739.328244,159.097993 C749.801579,159.097993 758.872099,162.935669 766.540076,170.611136 C774.208054,178.286603 778.041985,187.365982 778.041985,197.849547 C778.041985,208.333111 774.301564,217.318889 766.820611,224.807149 C759.339657,232.295409 750.175627,236.039483 739.328244,236.039483 L589.522901,236.039483 L589.522901,318.597141 L767.381679,318.597141 C777.855014,318.597141 786.925534,322.434817 794.593511,330.110284 C802.261489,337.785751 806.09542,346.86513 806.09542,357.348694 C806.09542,367.832259 802.354999,376.818037 794.874046,384.306297 C787.393092,391.794557 778.229062,395.538631 767.381679,395.538631 L546.881679,395.538631 Z" id="Path"></path>
                <path d="M451.019084,835.846138 C451.019084,830.978769 452.702273,824.801047 456.068702,817.312786 L592.969466,507.861975 C603.068753,485.022781 619.900646,473.603355 643.465649,473.603355 L648.515267,473.603355 C671.706223,473.603355 688.351095,485.022781 698.450382,507.861975 L835.351145,817.312786 C838.343526,824.052221 839.839695,829.855535 839.839695,834.722905 C839.839695,846.329708 835.912253,856.157902 828.057252,864.207782 C820.202251,872.257662 810.477157,876.282542 798.881679,876.282542 C779.805248,876.282542 765.965692,866.360746 757.362595,846.516856 L730.992366,784.739017 L558.183206,784.739017 L530.69084,849.324939 C522.835839,867.296764 509.557345,876.282542 490.854962,876.282542 C479.633532,876.282542 470.18897,872.351264 462.520992,864.488591 C454.853015,856.625917 451.019084,847.078529 451.019084,835.846138 Z M590.164122,708.359143 L699.01145,708.359143 L644.587786,578.625681 L590.164122,708.359143 Z" id="Combined-Shape"></path>
            </g>
        </g>
    </g>
</svg>