<?xml version="1.0" encoding="UTF-8" standalone="no"?>
<svg width="74px" height="35px" viewBox="0 0 74 35" version="1.1" xmlns="http://www.w3.org/2000/svg" xmlns:xlink="http://www.w3.org/1999/xlink">
    <!-- Generator: Sketch 40.1 (33804) - http://www.bohemiancoding.com/sketch -->
    <title>Combined Shape</title>
    <desc>Created with Sketch.</desc>
    <defs></defs>
    <g id="final" stroke="none" stroke-width="1" fill="none" fill-rule="evenodd">
        <g id="Artboard-Copy-8" transform="translate(-238.000000, -5692.000000)" fill="#FFFFFF">
            <g id="footer" transform="translate(0.000000, 5388.000000)">
                <g id="Group-8">
                    <g id="Group-22" transform="translate(238.000000, 304.000000)">
                        <path d="M8.7932966,4.10704871 C6.88457204,4.10704871 5.2917743,5.16013813 4.47563001,7.02937183 L4.47563001,4.18603042 C3.69897656,4.44930277 2.72486886,4.55461171 1.67177944,4.55461171 C1.13207112,4.55461171 0.56603556,4.52828448 2.13162821e-14,4.47563001 L2.13162821e-14,5.04166557 C1.5664705,5.04166557 2.05352436,5.80515539 2.05352436,7.42428036 L2.05352436,21.0091338 C2.05352436,22.2991683 1.5664705,22.6809132 0.276435971,22.6809132 L0.276435971,23.2469488 C0.842471531,23.2206216 2.05352436,23.1284762 3.18559548,23.1284762 C4.75206598,23.1284762 6.27904563,23.2206216 7.06886269,23.2469488 L7.06886269,22.6809132 C5.44973771,22.6809132 4.47563001,22.2728411 4.47563001,20.7326978 L4.47563001,17.28383 C5.08115642,18.1263015 6.22639116,18.7449916 7.63489825,18.7449916 C12.0183829,18.7449916 13.8086349,14.6905973 13.8086349,10.7941665 C13.8086349,6.45017266 11.6234744,4.10704871 8.7932966,4.10704871 L8.7932966,4.10704871 Z M7.33213504,18.1263015 C5.91046433,18.1263015 4.97584748,17.3891389 4.47563001,16.388704 L4.47563001,8.31940637 C5.05482918,6.04210051 6.48966351,4.91002939 8.05613401,4.91002939 C10.1096584,4.91002939 11.189075,6.88457204 11.189075,11.1627478 C11.189075,14.9933605 10.3202763,18.1263015 7.33213504,18.1263015 L7.33213504,18.1263015 Z M24.2342201,4.10704871 C22.3518228,4.10704871 20.8906612,5.98944604 20.3246257,7.55591654 L20.3246257,4.18603042 C19.5479722,4.44930277 18.5738645,4.55461171 17.5207751,4.55461171 C16.9810668,4.55461171 16.4150312,4.52828448 15.8489957,4.47563001 L15.8489957,5.04166557 C17.4154662,5.04166557 17.90252,5.80515539 17.90252,7.42428036 L17.90252,15.8621593 C17.90252,17.3628117 17.3364845,17.7972111 15.8489957,17.7972111 L15.8489957,18.3632466 C16.4676857,18.3369194 17.7972111,18.2579377 19.0345911,18.2579377 C20.7063706,18.2579377 22.3518228,18.3369194 23.1811307,18.3632466 L23.1811307,17.7972111 C21.4040423,17.7972111 20.3246257,17.3364845 20.3246257,15.5857233 L20.3246257,9.87271325 C20.3246257,7.87184336 21.8121145,4.80472045 24.0762567,4.80472045 C24.3132018,4.80472045 24.5106561,4.88370215 24.6422923,5.0679928 C24.1552384,5.37075601 23.720839,5.85780986 23.720839,6.52915436 C23.720839,7.42428036 24.4053472,7.92449784 25.1556734,7.92449784 C26.1034538,7.92449784 26.6958166,7.14784439 26.6958166,6.22639116 C26.6958166,5.0679928 25.6953817,4.10704871 24.2342201,4.10704871 L24.2342201,4.10704871 Z M39.0037991,14.9143788 C38.0691823,16.9284123 36.6606752,17.6129204 35.0415502,17.6129204 C32.9748623,17.6129204 30.9213379,15.4540871 30.9213379,11.7551106 C30.9213379,11.1627478 30.9476651,10.5440578 31.0134832,10.0306767 L39.4381985,10.0306767 C39.4381985,5.9631188 37.5558012,4.10704871 34.396533,4.10704871 C30.6975564,4.10704871 28.301778,7.01620822 28.301778,11.7551106 C28.301778,15.8884865 30.5922475,18.7449916 34.5018419,18.7449916 C37.1740563,18.7449916 38.9511447,16.9284123 39.5435075,15.1249967 L39.0037991,14.9143788 Z M34.291224,4.6204298 C36.0946396,4.6204298 36.9371112,6.88457204 36.8449658,9.51729557 L30.9739924,9.51729557 C31.263592,6.12108221 32.6852627,4.6204298 34.291224,4.6204298 L34.291224,4.6204298 Z M45.8225531,4.50195724 L45.8225531,0 C45.1512086,0.250108736 44.2824098,0.355417677 43.4004474,0.381744912 L43.4004474,4.50195724 L40.8072148,4.50195724 L40.8072148,5.04166557 L43.4004474,5.04166557 L43.4004474,14.0719073 C43.4004474,15.9937955 43.6637198,17.0468849 44.4535369,17.8498656 C45.0458997,18.4422284 45.7698986,18.7449916 47.0072787,18.7449916 C49.1924392,18.7449916 50.1402197,17.1258666 50.508801,15.0196878 L49.9822563,14.8880516 C49.4162207,16.9942304 48.6264037,17.7708838 47.546987,17.7708838 C46.4675704,17.7708838 45.8225531,17.1785211 45.8225531,15.4804144 L45.8225531,5.04166557 L49.8111292,5.04166557 L49.8111292,4.50195724 L45.8225531,4.50195724 Z M55.3661759,4.50195724 L55.3661759,0 C54.6948314,0.250108736 53.8260326,0.355417677 52.9440703,0.381744912 L52.9440703,4.50195724 L50.3508376,4.50195724 L50.3508376,5.04166557 L52.9440703,5.04166557 L52.9440703,14.0719073 C52.9440703,15.9937955 53.2073426,17.0468849 53.9971597,17.8498656 C54.5895225,18.4422284 55.3135214,18.7449916 56.5509015,18.7449916 C58.736062,18.7449916 59.6838425,17.1258666 60.0524238,15.0196878 L59.5258791,14.8880516 C58.9598435,16.9942304 58.1700265,17.7708838 57.0906098,17.7708838 C56.0111932,17.7708838 55.3661759,17.1785211 55.3661759,15.4804144 L55.3661759,5.04166557 L59.3547521,5.04166557 L59.3547521,4.50195724 L55.3661759,4.50195724 Z M68.7930659,4.47563001 L68.7930659,5.01533833 C70.1620822,5.10748365 70.8070994,5.46290133 70.8070994,6.31853648 C70.8070994,6.64762692 70.7017905,7.05569907 70.5174998,7.55591654 L67.5425222,15.3619418 L64.2911087,7.3058078 C64.0541636,6.72660863 63.9488546,6.29220924 63.9488546,5.97628242 C63.9488546,5.04166557 64.8176534,5.04166557 65.8312519,5.04166557 L65.8312519,4.47563001 C64.7518353,4.55461171 63.4223099,4.64675704 62.3297297,4.64675704 C61.3029675,4.64675704 60.4604959,4.58093895 59.6838425,4.47563001 L59.6838425,5.04166557 C60.1182419,5.04166557 60.8159136,5.14697451 61.5135854,6.5554816 L66.4104511,18.3237558 L65.449507,20.7853523 C64.8834715,22.2728411 64.1331453,22.8915311 63.1590376,22.8915311 C63.1063831,22.8915311 63.0537286,22.8915311 63.0010742,22.8652039 C63.3696554,22.654586 63.7250731,22.2728411 63.7250731,21.6541511 C63.7250731,20.8116795 63.1063831,20.3904438 62.3560569,20.3904438 C61.4609309,20.3904438 60.9212226,20.9564793 60.9212226,21.8121145 C60.9212226,22.8652039 61.7242032,23.4312394 62.7509654,23.4312394 C63.3959827,23.4312394 64.2647814,23.273276 64.8571442,22.7335677 C65.2915436,22.3518228 65.6601249,21.75946 66.0155426,20.8380068 L66.9369958,18.4948828 L71.3599714,6.91089927 C71.8733525,5.52871942 72.439388,5.09432004 73.1107325,5.01533833 L73.1107325,4.47563001 C72.544697,4.52828448 71.8996797,4.55461171 71.0572082,4.55461171 C70.2279003,4.55461171 69.7408464,4.52828448 68.7930659,4.47563001 Z M23.2055799,34.8382455 L21.278005,34.8382455 L21.278005,28.3545846 L18.7438507,34.8382455 L17.9081189,34.8382455 L15.3739646,28.3545846 L15.3739646,34.8382455 L13.4598692,34.8382455 L13.4598692,25.8473893 L16.1422986,25.8473893 L18.3259848,31.4683593 L20.509671,25.8473893 L23.2055799,25.8473893 L23.2055799,34.8382455 Z M32.3581906,34.8382455 L25.9958456,34.8382455 L25.9958456,25.8473893 L32.3581906,25.8473893 L32.3581906,27.5323324 L27.9099409,27.5323324 L27.9099409,29.4194686 L32.2638338,29.4194686 L32.2638338,31.1044116 L27.9099409,31.1044116 L27.9099409,33.1533024 L32.3581906,33.1533024 L32.3581906,34.8382455 Z M42.912674,34.8382455 L41.0659764,34.8382455 L36.7794812,28.9746436 L36.7794812,34.8382455 L34.8653859,34.8382455 L34.8653859,25.8473893 L36.8333994,25.8473893 L40.9985787,31.4953184 L40.9985787,25.8473893 L42.912674,25.8473893 L42.912674,34.8382455 Z M49.7602826,35 C48.4302942,35 47.4215851,34.6607682 46.7341249,33.9822944 C46.0466647,33.3038206 45.7029397,32.3894673 45.7029397,31.2392071 L45.7029397,25.8473893 L47.6439941,25.8473893 L47.6439941,31.1852889 C47.6439941,31.8323103 47.8282127,32.3467744 48.1966554,32.7286968 C48.5650982,33.1106191 49.086302,33.3015774 49.7602826,33.3015774 C50.4342632,33.3015774 50.9532205,33.1106191 51.31717,32.7286968 C51.6811195,32.3467744 51.8630915,31.8323103 51.8630915,31.1852889 L51.8630915,25.8473893 L53.8176255,25.8473893 L53.8176255,31.2392071 C53.8176255,32.3894673 53.4739005,33.3038206 52.7864403,33.9822944 C52.0989801,34.6607682 51.090271,35 49.7602826,35 Z" id="Combined-Shape"></path>
                    </g>
                </g>
            </g>
        </g>
    </g>
</svg>