<?xml version="1.0" encoding="UTF-8" standalone="no"?>
<svg width="100px" height="100px" viewBox="0 0 100 100" version="1.1" xmlns="http://www.w3.org/2000/svg" xmlns:xlink="http://www.w3.org/1999/xlink">
    <!-- Generator: Sketch 40.1 (33804) - http://www.bohemiancoding.com/sketch -->
    <title>noun_538035_cc</title>
    <desc>Created with Sketch.</desc>
    <defs></defs>
    <g id="final" stroke="none" stroke-width="1" fill="none" fill-rule="evenodd">
        <g id="Artboard-Copy-8" transform="translate(-423.000000, -4221.000000)">
            <g id="4_savings" transform="translate(239.000000, 3893.000000)">
                <g id="Group-18" transform="translate(0.000000, 326.000000)">
                    <g id="save_printing" transform="translate(0.000000, 2.000000)">
                        <g id="noun_538035_cc" transform="translate(184.000000, 0.000000)">
                            <g id="Group">
                                <path d="M24.6875,67.0833333 L0.416666667,91.25 L8.75,99.5833333 L33.0208333,75.4166667 L74.375,34.0625 L66.0416667,25.7291667 L24.6875,67.0833333 L24.6875,67.0833333 Z M64.7403153,31.3541667 L68.8541667,35.468018 L16.4406532,87.7291667 L12.3268018,83.6153153 L64.7403153,31.3541667 L64.7403153,31.3541667 Z" id="Shape" fill="#444750"></path>
                                <rect id="Rectangle-path" fill="#FF7070" x="61.6666667" y="0.9375" width="3.95833333" height="11.875"></rect>
                                <rect id="Rectangle-path" fill="#FF7070" x="69.4791667" y="54.2708333" width="3.95833333" height="11.875"></rect>
                                <rect id="Rectangle-path" fill="#FF7070" x="87.2916667" y="34.4791667" width="11.875" height="3.95833333"></rect>
                                <rect id="Rectangle-path" fill="#FF7070" x="35" y="27.6041667" width="11.875" height="3.95833333"></rect>
                                <rect id="Rectangle-path" fill="#FF7070" transform="translate(82.699771, 19.378958) rotate(45.000000) translate(-82.699771, -19.378958) " x="80.7206231" y="13.4415153" width="3.95829537" height="11.8748861"></rect>
                                <rect id="Rectangle-path" fill="#FF7070" transform="translate(48.139552, 15.081010) rotate(45.000000) translate(-48.139552, -15.081010) " x="42.202109" y="13.1018627" width="11.8748861" height="3.95829537"></rect>
                                <rect id="Rectangle-path" fill="#FF7070" transform="translate(87.607458, 52.626292) rotate(-45.000000) translate(-87.607458, -52.626292) " x="85.6283106" y="46.6888486" width="3.95829537" height="11.8748861"></rect>
                            </g>
                        </g>
                    </g>
                </g>
            </g>
        </g>
    </g>
</svg>